<svg version="1.1" viewBox="0.0 0.0 1027.5695538057744 459.16272965879267" fill="none" stroke="none" stroke-linecap="square" stroke-miterlimit="10" xmlns:xlink="http://www.w3.org/1999/xlink" xmlns="http://www.w3.org/2000/svg"><clipPath id="p.0"><path d="m0 0l1027.5696 0l0 459.16272l-1027.5696 0l0 -459.16272z" clip-rule="nonzero"/></clipPath><g clip-path="url(#p.0)"><path fill="#000000" fill-opacity="0.0" d="m0 0l1027.5696 0l0 459.16272l-1027.5696 0z" fill-rule="evenodd"/><path fill="#efefef" d="m0 0l1027.5591 0l0 459.1496l-1027.5591 0z" fill-rule="evenodd"/><path stroke="#000000" stroke-width="1.0" stroke-linejoin="round" stroke-linecap="butt" d="m0 0l1027.5591 0l0 459.1496l-1027.5591 0z" fill-rule="evenodd"/><path fill="#d9d2e9" d="m431.85303 29.801838l230.39368 0l0 396.25195l-230.39368 0z" fill-rule="evenodd"/><path stroke="#000000" stroke-width="1.0" stroke-linejoin="round" stroke-linecap="butt" d="m431.85303 29.801838l230.39368 0l0 396.25195l-230.39368 0z" fill-rule="evenodd"/><path fill="#000000" d="m521.19965 47.42871l0 0.5q0 1.1875 -0.328125 2.140625q-0.3125 0.9375 -0.90625 1.59375q-0.578125 0.65625 -1.390625 1.015625q-0.8125 0.34375 -1.796875 0.34375q-0.984375 0 -1.796875 -0.34375q-0.8125 -0.359375 -1.40625 -1.015625q-0.59375 -0.65625 -0.921875 -1.59375q-0.328125 -0.953125 -0.328125 -2.140625l0 -0.5q0 -1.1875 0.328125 -2.125q0.328125 -0.953125 0.90625 -1.609375q0.59375 -0.671875 1.40625 -1.015625q0.8125 -0.359375 1.796875 -0.359375q0.984375 0 1.796875 0.359375q0.8125 0.34375 1.40625 1.015625q0.59375 0.65625 0.90625 1.609375q0.328125 0.9375 0.328125 2.125zm-2.15625 0.5l0 -0.515625q0 -0.828125 -0.15625 -1.453125q-0.15625 -0.640625 -0.453125 -1.0625q-0.28125 -0.4375 -0.703125 -0.65625q-0.421875 -0.21875 -0.96875 -0.21875q-0.546875 0 -0.96875 0.21875q-0.40625 0.21875 -0.703125 0.65625q-0.296875 0.421875 -0.453125 1.0625q-0.140625 0.625 -0.140625 1.453125l0 0.515625q0 0.8125 0.140625 1.453125q0.15625 0.625 0.453125 1.0625q0.296875 0.4375 0.71875 0.65625q0.421875 0.21875 0.96875 0.21875q0.546875 0 0.96875 -0.21875q0.421875 -0.21875 0.703125 -0.65625q0.28125 -0.4375 0.4375 -1.0625q0.15625 -0.640625 0.15625 -1.453125zm5.6360474 -1.296875l0 9.234375l-2.0625 0l0 -10.734375l1.921875 0l0.140625 1.5zm4.90625 2.296875l0 0.140625q0 0.84375 -0.203125 1.578125q-0.1875 0.71875 -0.578125 1.25q-0.375 0.53125 -0.9375 0.828125q-0.5625 0.296875 -1.28125 0.296875q-0.71875 0 -1.25 -0.28125q-0.515625 -0.28125 -0.875 -0.796875q-0.34375 -0.53125 -0.5625 -1.21875q-0.203125 -0.6875 -0.328125 -1.46875l0 -0.390625q0.125 -0.84375 0.328125 -1.546875q0.21875 -0.71875 0.5625 -1.234375q0.359375 -0.515625 0.875 -0.796875q0.53125 -0.296875 1.234375 -0.296875q0.734375 0 1.296875 0.28125q0.5625 0.28125 0.9375 0.8125q0.390625 0.515625 0.578125 1.234375q0.203125 0.71875 0.203125 1.609375zm-2.0625 0.140625l0 -0.140625q0 -0.5 -0.09375 -0.90625q-0.078125 -0.421875 -0.25 -0.734375q-0.171875 -0.328125 -0.46875 -0.5q-0.28125 -0.171875 -0.671875 -0.171875q-0.421875 0 -0.71875 0.140625q-0.296875 0.125 -0.484375 0.390625q-0.1875 0.25 -0.28125 0.609375q-0.09375 0.359375 -0.109375 0.8125l0 0.984375q0.03125 0.53125 0.1875 0.953125q0.171875 0.421875 0.515625 0.671875q0.34375 0.234375 0.90625 0.234375q0.40625 0 0.6875 -0.171875q0.28125 -0.1875 0.453125 -0.5q0.171875 -0.328125 0.25 -0.75q0.078125 -0.4375 0.078125 -0.921875zm6.9003906 3.953125q-0.890625 0 -1.609375 -0.28125q-0.71875 -0.296875 -1.21875 -0.8125q-0.5 -0.515625 -0.765625 -1.1875q-0.25 -0.6875 -0.25 -1.46875l0 -0.28125q0 -0.875 0.25 -1.609375q0.25 -0.734375 0.71875 -1.265625q0.46875 -0.546875 1.140625 -0.828125q0.671875 -0.296875 1.515625 -0.296875q0.8125 0 1.453125 0.28125q0.640625 0.265625 1.0625 0.765625q0.4375 0.5 0.65625 1.203125q0.234375 0.703125 0.234375 1.546875l0 0.859375l-6.15625 0l0 -1.375l4.125 0l0 -0.15625q0 -0.4375 -0.15625 -0.765625q-0.15625 -0.34375 -0.46875 -0.546875q-0.296875 -0.203125 -0.78125 -0.203125q-0.40625 0 -0.703125 0.1875q-0.28125 0.171875 -0.46875 0.5q-0.1875 0.3125 -0.28125 0.75q-0.078125 0.4375 -0.078125 0.953125l0 0.28125q0 0.46875 0.125 0.859375q0.140625 0.390625 0.375 0.6875q0.25 0.28125 0.609375 0.4375q0.359375 0.15625 0.8125 0.15625q0.546875 0 1.03125 -0.21875q0.484375 -0.21875 0.84375 -0.65625l1.0 1.078125q-0.25 0.359375 -0.671875 0.6875q-0.40625 0.3125 -1.0 0.515625q-0.59375 0.203125 -1.34375 0.203125zm6.368103 -6.234375l0 6.09375l-2.046875 0l0 -7.75l1.921875 0l0.125 1.65625zm-0.296875 1.953125l-0.5625 0q0 -0.859375 0.21875 -1.546875q0.234375 -0.703125 0.625 -1.1875q0.40625 -0.484375 0.953125 -0.75q0.5625 -0.265625 1.25 -0.265625q0.546875 0 1.0 0.15625q0.453125 0.15625 0.765625 0.5q0.328125 0.34375 0.5 0.921875q0.1875 0.5625 0.1875 1.375l0 4.9375l-2.078125 0l0 -4.9375q0 -0.515625 -0.140625 -0.796875q-0.140625 -0.296875 -0.421875 -0.40625q-0.28125 -0.125 -0.671875 -0.125q-0.421875 0 -0.734375 0.171875q-0.296875 0.15625 -0.5 0.453125q-0.1875 0.28125 -0.296875 0.671875q-0.09375 0.375 -0.09375 0.828125zm10.684265 0.421875l-2.65625 0l0 -1.671875l2.65625 0q0.625 0 1.0 -0.203125q0.390625 -0.203125 0.5625 -0.5625q0.1875 -0.375 0.1875 -0.828125q0 -0.46875 -0.1875 -0.859375q-0.171875 -0.40625 -0.5625 -0.640625q-0.375 -0.25 -1.0 -0.25l-1.90625 0l0 8.734375l-2.140625 0l0 -10.421875l4.046875 0q1.234375 0 2.109375 0.4375q0.875 0.4375 1.328125 1.21875q0.46875 0.765625 0.46875 1.765625q0 1.015625 -0.46875 1.75q-0.453125 0.734375 -1.328125 1.140625q-0.875 0.390625 -2.109375 0.390625zm5.399536 -6.703125l3.875 0q1.203125 0 2.0625 0.359375q0.859375 0.359375 1.328125 1.0625q0.46875 0.703125 0.46875 1.71875q0 0.84375 -0.296875 1.4375q-0.28125 0.59375 -0.796875 1.0q-0.5 0.390625 -1.1875 0.625l-0.6875 0.359375l-3.375 0l-0.015625 -1.671875l2.515625 0q0.5625 0 0.9375 -0.203125q0.375 -0.203125 0.5625 -0.546875q0.1875 -0.359375 0.1875 -0.84375q0 -0.5 -0.1875 -0.859375q-0.1875 -0.359375 -0.5625 -0.546875q-0.375 -0.203125 -0.953125 -0.203125l-1.734375 0l0 8.734375l-2.140625 0l0 -10.421875zm5.8125 10.421875l-2.375 -4.640625l2.265625 -0.015625l2.40625 4.5625l0 0.09375l-2.296875 0zm3.1079102 -3.796875l0 -0.140625q0 -0.859375 0.234375 -1.578125q0.25 -0.71875 0.71875 -1.25q0.46875 -0.53125 1.140625 -0.828125q0.6875 -0.296875 1.5625 -0.296875q0.890625 0 1.578125 0.296875q0.6875 0.296875 1.15625 0.828125q0.46875 0.53125 0.703125 1.25q0.25 0.71875 0.25 1.578125l0 0.140625q0 0.84375 -0.25 1.5625q-0.234375 0.71875 -0.703125 1.265625q-0.46875 0.53125 -1.15625 0.828125q-0.671875 0.28125 -1.5625 0.28125q-0.875 0 -1.5625 -0.28125q-0.6875 -0.296875 -1.15625 -0.828125q-0.46875 -0.546875 -0.71875 -1.265625q-0.234375 -0.71875 -0.234375 -1.5625zm2.0625 -0.140625l0 0.140625q0 0.484375 0.078125 0.90625q0.09375 0.421875 0.28125 0.75q0.1875 0.3125 0.5 0.5q0.3125 0.171875 0.75 0.171875q0.4375 0 0.734375 -0.171875q0.3125 -0.1875 0.5 -0.5q0.1875 -0.328125 0.265625 -0.75q0.09375 -0.421875 0.09375 -0.90625l0 -0.140625q0 -0.484375 -0.09375 -0.890625q-0.078125 -0.421875 -0.265625 -0.75q-0.1875 -0.328125 -0.5 -0.515625q-0.3125 -0.1875 -0.75 -0.1875q-0.4375 0 -0.75 0.1875q-0.296875 0.1875 -0.484375 0.515625q-0.1875 0.328125 -0.28125 0.75q-0.078125 0.40625 -0.078125 0.890625zm11.335266 -6.484375l0 10.421875l-2.140625 0l0 -10.421875l2.140625 0zm3.203125 0l0 1.6875l-8.5 0l0 -1.6875l8.5 0z" fill-rule="nonzero"/><path fill="#d9ead3" d="m861.86615 122.161415l133.19684 0l0 197.19687l-133.19684 0z" fill-rule="evenodd"/><path stroke="#000000" stroke-width="1.0" stroke-linejoin="round" stroke-linecap="butt" d="m861.86615 122.161415l133.19684 0l0 197.19687l-133.19684 0z" fill-rule="evenodd"/><path fill="#000000" d="m907.04645 134.81955l0 10.421875l-2.140625 0l0 -10.421875l2.140625 0zm4.15625 4.453125l0 1.671875l-4.75 0l0 -1.671875l4.75 0zm0.5 -4.453125l0 1.6875l-5.25 0l0 -1.6875l5.25 0zm3.2937622 -0.578125l0 11.0l-2.078125 0l0 -11.0l2.078125 0zm5.878723 9.25l0 -3.453125q0 -0.359375 -0.125 -0.625q-0.125 -0.28125 -0.375 -0.421875q-0.25 -0.15625 -0.65625 -0.15625q-0.34375 0 -0.59375 0.125q-0.25 0.109375 -0.390625 0.328125q-0.125 0.21875 -0.125 0.515625l-2.0625 0q0 -0.5 0.21875 -0.9375q0.234375 -0.4375 0.671875 -0.78125q0.4375 -0.34375 1.03125 -0.53125q0.609375 -0.203125 1.359375 -0.203125q0.90625 0 1.609375 0.3125q0.703125 0.296875 1.109375 0.90625q0.40625 0.59375 0.40625 1.484375l0 3.3125q0 0.640625 0.078125 1.046875q0.078125 0.40625 0.21875 0.703125l0 0.125l-2.078125 0q-0.15625 -0.3125 -0.234375 -0.78125q-0.0625 -0.484375 -0.0625 -0.96875zm0.265625 -2.96875l0.015625 1.171875l-1.15625 0q-0.40625 0 -0.703125 0.09375q-0.296875 0.09375 -0.5 0.265625q-0.1875 0.15625 -0.28125 0.390625q-0.078125 0.21875 -0.078125 0.484375q0 0.265625 0.109375 0.484375q0.125 0.203125 0.34375 0.328125q0.234375 0.109375 0.546875 0.109375q0.46875 0 0.8125 -0.1875q0.34375 -0.1875 0.53125 -0.453125q0.1875 -0.28125 0.203125 -0.53125l0.53125 0.875q-0.109375 0.296875 -0.3125 0.609375q-0.1875 0.3125 -0.5 0.59375q-0.296875 0.28125 -0.71875 0.453125q-0.421875 0.171875 -1.0 0.171875q-0.734375 0 -1.328125 -0.296875q-0.59375 -0.296875 -0.953125 -0.8125q-0.34375 -0.53125 -0.34375 -1.203125q0 -0.609375 0.234375 -1.078125q0.234375 -0.484375 0.671875 -0.796875q0.453125 -0.328125 1.125 -0.5q0.671875 -0.171875 1.5625 -0.171875l1.1875 0zm7.577759 2.578125q0 -0.21875 -0.125 -0.390625q-0.125 -0.1875 -0.484375 -0.34375q-0.34375 -0.15625 -0.984375 -0.28125q-0.59375 -0.125 -1.09375 -0.3125q-0.5 -0.203125 -0.875 -0.484375q-0.375 -0.28125 -0.578125 -0.65625q-0.203125 -0.390625 -0.203125 -0.890625q0 -0.484375 0.203125 -0.90625q0.21875 -0.4375 0.609375 -0.765625q0.40625 -0.328125 0.96875 -0.515625q0.578125 -0.203125 1.3125 -0.203125q1.0 0 1.71875 0.328125q0.734375 0.3125 1.125 0.875q0.390625 0.5625 0.390625 1.28125l-2.0625 0q0 -0.296875 -0.125 -0.53125q-0.125 -0.25 -0.390625 -0.390625q-0.25 -0.140625 -0.671875 -0.140625q-0.34375 0 -0.59375 0.125q-0.25 0.125 -0.390625 0.328125q-0.125 0.1875 -0.125 0.421875q0 0.171875 0.078125 0.3125q0.078125 0.140625 0.25 0.265625q0.171875 0.109375 0.4375 0.203125q0.28125 0.09375 0.6875 0.171875q0.84375 0.171875 1.5 0.453125q0.65625 0.265625 1.03125 0.734375q0.390625 0.46875 0.390625 1.234375q0 0.515625 -0.234375 0.953125q-0.21875 0.421875 -0.65625 0.75q-0.421875 0.3125 -1.015625 0.484375q-0.59375 0.171875 -1.34375 0.171875q-1.078125 0 -1.828125 -0.375q-0.75 -0.390625 -1.140625 -0.984375q-0.375 -0.609375 -0.375 -1.234375l1.953125 0q0.015625 0.421875 0.21875 0.6875q0.203125 0.25 0.515625 0.375q0.328125 0.109375 0.703125 0.109375q0.390625 0 0.65625 -0.109375q0.265625 -0.125 0.40625 -0.3125q0.140625 -0.1875 0.140625 -0.4375zm5.3566284 -8.859375l0 11.0l-2.0625 0l0 -11.0l2.0625 0zm-0.296875 6.859375l-0.5625 0q0 -0.8125 0.203125 -1.484375q0.21875 -0.6875 0.609375 -1.1875q0.390625 -0.515625 0.921875 -0.796875q0.546875 -0.28125 1.203125 -0.28125q0.5625 0 1.03125 0.171875q0.46875 0.15625 0.8125 0.515625q0.34375 0.34375 0.53125 0.921875q0.1875 0.578125 0.1875 1.390625l0 4.890625l-2.078125 0l0 -4.90625q0 -0.515625 -0.15625 -0.8125q-0.140625 -0.296875 -0.421875 -0.421875q-0.265625 -0.125 -0.671875 -0.125q-0.4375 0 -0.75 0.171875q-0.3125 0.15625 -0.5 0.453125q-0.1875 0.28125 -0.28125 0.671875q-0.078125 0.375 -0.078125 0.828125zm14.507202 -4.5l-2.84375 8.640625l-2.28125 0l3.875 -10.421875l1.453125 0l-0.203125 1.78125zm2.34375 8.640625l-2.828125 -8.640625l-0.234375 -1.78125l1.46875 0l3.890625 10.421875l-2.296875 0zm-0.125 -3.875l0 1.671875l-5.5 0l0 -1.671875l5.5 0z" fill-rule="nonzero"/><path fill="#000000" fill-opacity="0.0" d="m861.86615 257.2244l55.62201 0l0 35.559082l-55.62201 0z" fill-rule="evenodd"/><path fill="#000000" d="m871.913 279.0244l0 -9.546875l4.234375 0q1.265625 0 1.921875 0.265625q0.671875 0.25 1.0625 0.90625q0.40625 0.65625 0.40625 1.4375q0 1.015625 -0.65625 1.71875q-0.65625 0.6875 -2.03125 0.875q0.5 0.25 0.765625 0.484375q0.546875 0.5 1.046875 1.265625l1.65625 2.59375l-1.578125 0l-1.265625 -1.984375q-0.5625 -0.859375 -0.921875 -1.3125q-0.34375 -0.453125 -0.640625 -0.640625q-0.28125 -0.1875 -0.5625 -0.25q-0.21875 -0.046875 -0.703125 -0.046875l-1.46875 0l0 4.234375l-1.265625 0zm1.265625 -5.328125l2.71875 0q0.859375 0 1.34375 -0.171875q0.484375 -0.1875 0.734375 -0.578125q0.265625 -0.390625 0.265625 -0.859375q0 -0.671875 -0.5 -1.109375q-0.484375 -0.4375 -1.546875 -0.4375l-3.015625 0l0 3.15625zm12.921997 3.109375l1.203125 0.140625q-0.28125 1.0625 -1.0625 1.65625q-0.765625 0.578125 -1.96875 0.578125q-1.515625 0 -2.40625 -0.9375q-0.890625 -0.9375 -0.890625 -2.609375q0 -1.75 0.890625 -2.703125q0.90625 -0.96875 2.34375 -0.96875q1.390625 0 2.265625 0.9375q0.875 0.9375 0.875 2.65625q0 0.109375 0 0.3125l-5.15625 0q0.0625 1.140625 0.640625 1.75q0.578125 0.59375 1.4375 0.59375q0.65625 0 1.109375 -0.328125q0.453125 -0.34375 0.71875 -1.078125zm-3.84375 -1.90625l3.859375 0q-0.078125 -0.859375 -0.4375 -1.296875q-0.5625 -0.6875 -1.453125 -0.6875q-0.8125 0 -1.359375 0.546875q-0.546875 0.53125 -0.609375 1.4375zm6.0531006 2.0625l1.15625 -0.1875q0.109375 0.703125 0.546875 1.078125q0.453125 0.359375 1.25 0.359375q0.8125 0 1.203125 -0.328125q0.390625 -0.328125 0.390625 -0.765625q0 -0.390625 -0.359375 -0.625q-0.234375 -0.15625 -1.1875 -0.390625q-1.296875 -0.328125 -1.796875 -0.5625q-0.484375 -0.25 -0.75 -0.65625q-0.25 -0.421875 -0.25 -0.9375q0 -0.453125 0.203125 -0.84375q0.21875 -0.40625 0.578125 -0.671875q0.28125 -0.1875 0.75 -0.328125q0.46875 -0.140625 1.015625 -0.140625q0.8125 0 1.421875 0.234375q0.609375 0.234375 0.90625 0.640625q0.296875 0.390625 0.40625 1.0625l-1.140625 0.15625q-0.078125 -0.53125 -0.453125 -0.828125q-0.375 -0.3125 -1.0625 -0.3125q-0.8125 0 -1.15625 0.265625q-0.34375 0.265625 -0.34375 0.625q0 0.234375 0.140625 0.421875q0.15625 0.1875 0.453125 0.3125q0.171875 0.0625 1.03125 0.296875q1.25 0.328125 1.734375 0.546875q0.5 0.203125 0.78125 0.609375q0.28125 0.40625 0.28125 1.0q0 0.59375 -0.34375 1.109375q-0.34375 0.515625 -1.0 0.796875q-0.640625 0.28125 -1.453125 0.28125q-1.34375 0 -2.046875 -0.5625q-0.703125 -0.5625 -0.90625 -1.65625zm11.8671875 -0.15625l1.203125 0.140625q-0.28125 1.0625 -1.0625 1.65625q-0.765625 0.578125 -1.96875 0.578125q-1.515625 0 -2.40625 -0.9375q-0.890625 -0.9375 -0.890625 -2.609375q0 -1.75 0.890625 -2.703125q0.90625 -0.96875 2.34375 -0.96875q1.390625 0 2.265625 0.9375q0.875 0.9375 0.875 2.65625q0 0.109375 0 0.3125l-5.15625 0q0.0625 1.140625 0.640625 1.75q0.578125 0.59375 1.4375 0.59375q0.65625 0 1.109375 -0.328125q0.453125 -0.34375 0.71875 -1.078125zm-3.84375 -1.90625l3.859375 0q-0.078125 -0.859375 -0.4375 -1.296875q-0.5625 -0.6875 -1.453125 -0.6875q-0.8125 0 -1.359375 0.546875q-0.546875 0.53125 -0.609375 1.4375zm9.084351 3.078125l0.171875 1.03125q-0.5 0.109375 -0.890625 0.109375q-0.640625 0 -1.0 -0.203125q-0.34375 -0.203125 -0.484375 -0.53125q-0.140625 -0.328125 -0.140625 -1.390625l0 -3.96875l-0.859375 0l0 -0.90625l0.859375 0l0 -1.71875l1.171875 -0.703125l0 2.421875l1.171875 0l0 0.90625l-1.171875 0l0 4.046875q0 0.5 0.046875 0.640625q0.0625 0.140625 0.203125 0.234375q0.140625 0.078125 0.40625 0.078125q0.203125 0 0.515625 -0.046875z" fill-rule="nonzero"/><path fill="#000000" fill-opacity="0.0" d="m861.86615 283.8071l55.62201 0l0 35.55905l-55.62201 0z" fill-rule="evenodd"/><path fill="#000000" d="m873.55365 305.6071l-2.53125 -9.546875l1.296875 0l1.453125 6.265625q0.234375 0.984375 0.40625 1.953125q0.359375 -1.53125 0.421875 -1.765625l1.828125 -6.453125l1.515625 0l1.375 4.828125q0.515625 1.796875 0.734375 3.390625q0.1875 -0.90625 0.484375 -2.078125l1.484375 -6.140625l1.28125 0l-2.625 9.546875l-1.21875 0l-2.0 -7.265625q-0.265625 -0.921875 -0.3125 -1.125q-0.140625 0.65625 -0.28125 1.125l-2.015625 7.265625l-1.296875 0zm10.923462 0l0 -9.546875l3.59375 0q0.953125 0 1.453125 0.09375q0.703125 0.125 1.171875 0.453125q0.484375 0.328125 0.765625 0.921875q0.296875 0.59375 0.296875 1.296875q0 1.21875 -0.78125 2.0625q-0.765625 0.84375 -2.796875 0.84375l-2.4375 0l0 3.875l-1.265625 0zm1.265625 -5.0l2.453125 0q1.234375 0 1.75 -0.453125q0.515625 -0.46875 0.515625 -1.28125q0 -0.609375 -0.3125 -1.03125q-0.296875 -0.421875 -0.796875 -0.5625q-0.3125 -0.09375 -1.171875 -0.09375l-2.4375 0l0 3.421875zm6.3897705 7.65625l0 -0.859375l7.765625 0l0 0.859375l-7.765625 0zm8.584351 -2.65625l0 -9.546875l1.265625 0l0 8.421875l4.703125 0l0 1.125l-5.96875 0z" fill-rule="nonzero"/><path fill="#000000" fill-opacity="0.0" d="m577.8373 202.70473l84.409424 0l0 35.55905l-84.409424 0z" fill-rule="evenodd"/><path fill="#000000" d="m601.2503 221.44223l1.203125 -0.109375q0.078125 0.71875 0.390625 1.1875q0.3125 0.453125 0.953125 0.734375q0.65625 0.28125 1.46875 0.28125q0.71875 0 1.265625 -0.21875q0.5625 -0.21875 0.828125 -0.578125q0.265625 -0.375 0.265625 -0.828125q0 -0.453125 -0.265625 -0.78125q-0.25 -0.328125 -0.84375 -0.5625q-0.390625 -0.15625 -1.703125 -0.46875q-1.3125 -0.3125 -1.84375 -0.59375q-0.671875 -0.359375 -1.015625 -0.890625q-0.328125 -0.53125 -0.328125 -1.1875q0 -0.71875 0.40625 -1.34375q0.40625 -0.625 1.1875 -0.953125q0.796875 -0.328125 1.765625 -0.328125q1.046875 0 1.859375 0.34375q0.8125 0.34375 1.25 1.015625q0.4375 0.65625 0.46875 1.484375l-1.203125 0.09375q-0.109375 -0.90625 -0.671875 -1.359375q-0.5625 -0.46875 -1.65625 -0.46875q-1.140625 0 -1.671875 0.421875q-0.515625 0.421875 -0.515625 1.015625q0 0.515625 0.359375 0.84375q0.375 0.328125 1.90625 0.6875q1.546875 0.34375 2.109375 0.59375q0.84375 0.390625 1.234375 0.984375q0.390625 0.578125 0.390625 1.359375q0 0.75 -0.4375 1.4375q-0.421875 0.671875 -1.25 1.046875q-0.8125 0.359375 -1.828125 0.359375q-1.296875 0 -2.171875 -0.375q-0.875 -0.375 -1.375 -1.125q-0.5 -0.765625 -0.53125 -1.71875zm9.3272705 3.0625l0 -9.546875l3.59375 0q0.953125 0 1.453125 0.09375q0.703125 0.125 1.171875 0.453125q0.484375 0.328125 0.765625 0.921875q0.296875 0.59375 0.296875 1.296875q0 1.21875 -0.78125 2.0625q-0.765625 0.84375 -2.796875 0.84375l-2.4375 0l0 3.875l-1.265625 0zm1.265625 -5.0l2.453125 0q1.234375 0 1.75 -0.453125q0.515625 -0.46875 0.515625 -1.28125q0 -0.609375 -0.3125 -1.03125q-0.296875 -0.421875 -0.796875 -0.5625q-0.3125 -0.09375 -1.171875 -0.09375l-2.4375 0l0 3.421875zm7.8428345 5.0l0 -9.546875l1.25 0l0 9.546875l-1.25 0zm7.218506 0l0 -9.546875l1.265625 0l0 3.921875l4.953125 0l0 -3.921875l1.265625 0l0 9.546875l-1.265625 0l0 -4.5l-4.953125 0l0 4.5l-1.265625 0zm9.000122 -3.453125q0 -1.921875 1.078125 -2.84375q0.890625 -0.765625 2.171875 -0.765625q1.421875 0 2.328125 0.9375q0.90625 0.921875 0.90625 2.578125q0 1.328125 -0.40625 2.09375q-0.390625 0.765625 -1.15625 1.1875q-0.765625 0.421875 -1.671875 0.421875q-1.453125 0 -2.359375 -0.921875q-0.890625 -0.9375 -0.890625 -2.6875zm1.203125 0q0 1.328125 0.578125 1.984375q0.59375 0.65625 1.46875 0.65625q0.875 0 1.453125 -0.65625q0.578125 -0.671875 0.578125 -2.03125q0 -1.28125 -0.59375 -1.9375q-0.578125 -0.65625 -1.4375 -0.65625q-0.875 0 -1.46875 0.65625q-0.578125 0.65625 -0.578125 1.984375zm6.1781006 1.390625l1.15625 -0.1875q0.109375 0.703125 0.546875 1.078125q0.453125 0.359375 1.25 0.359375q0.8125 0 1.203125 -0.328125q0.390625 -0.328125 0.390625 -0.765625q0 -0.390625 -0.359375 -0.625q-0.234375 -0.15625 -1.1875 -0.390625q-1.296875 -0.328125 -1.796875 -0.5625q-0.484375 -0.25 -0.75 -0.65625q-0.25 -0.421875 -0.25 -0.9375q0 -0.453125 0.203125 -0.84375q0.21875 -0.40625 0.578125 -0.671875q0.28125 -0.1875 0.75 -0.328125q0.46875 -0.140625 1.015625 -0.140625q0.8125 0 1.421875 0.234375q0.609375 0.234375 0.90625 0.640625q0.296875 0.390625 0.40625 1.0625l-1.140625 0.15625q-0.078125 -0.53125 -0.453125 -0.828125q-0.375 -0.3125 -1.0625 -0.3125q-0.8125 0 -1.15625 0.265625q-0.34375 0.265625 -0.34375 0.625q0 0.234375 0.140625 0.421875q0.15625 0.1875 0.453125 0.3125q0.171875 0.0625 1.03125 0.296875q1.25 0.328125 1.734375 0.546875q0.5 0.203125 0.78125 0.609375q0.28125 0.40625 0.28125 1.0q0 0.59375 -0.34375 1.109375q-0.34375 0.515625 -1.0 0.796875q-0.640625 0.28125 -1.453125 0.28125q-1.34375 0 -2.046875 -0.5625q-0.703125 -0.5625 -0.90625 -1.65625zm9.6953125 1.015625l0.171875 1.03125q-0.5 0.109375 -0.890625 0.109375q-0.640625 0 -1.0 -0.203125q-0.34375 -0.203125 -0.484375 -0.53125q-0.140625 -0.328125 -0.140625 -1.390625l0 -3.96875l-0.859375 0l0 -0.90625l0.859375 0l0 -1.71875l1.171875 -0.703125l0 2.421875l1.171875 0l0 0.90625l-1.171875 0l0 4.046875q0 0.5 0.046875 0.640625q0.0625 0.140625 0.203125 0.234375q0.140625 0.078125 0.40625 0.078125q0.203125 0 0.515625 -0.046875z" fill-rule="nonzero"/><path fill="#000000" fill-opacity="0.0" d="m662.2467 220.48425l99.80902 0l0 0.28346252l99.81305 0" fill-rule="evenodd"/><path stroke="#4a86e8" stroke-width="2.0" stroke-linejoin="round" stroke-linecap="butt" d="m674.2467 220.48425l87.80908 0l0 0.28346252l87.81299 0" fill-rule="evenodd"/><path fill="#4a86e8" stroke="#4a86e8" stroke-width="2.0" stroke-linecap="butt" d="m674.2467 217.18079l-9.076172 3.3034668l9.076172 3.3034668z" fill-rule="evenodd"/><path fill="#4a86e8" stroke="#4a86e8" stroke-width="2.0" stroke-linecap="butt" d="m849.8688 224.07118l9.076172 -3.3034668l-9.076172 -3.3034668z" fill-rule="evenodd"/><path fill="#000000" fill-opacity="0.0" d="m577.8373 257.2244l84.409424 0l0 35.559082l-84.409424 0z" fill-rule="evenodd"/><path fill="#000000" d="m593.8378 275.9619l1.203125 -0.109375q0.078125 0.71875 0.390625 1.1875q0.3125 0.453125 0.953125 0.734375q0.65625 0.28125 1.46875 0.28125q0.71875 0 1.265625 -0.21875q0.5625 -0.21875 0.828125 -0.578125q0.265625 -0.375 0.265625 -0.828125q0 -0.453125 -0.265625 -0.78125q-0.25 -0.328125 -0.84375 -0.5625q-0.390625 -0.15625 -1.703125 -0.46875q-1.3125 -0.3125 -1.84375 -0.59375q-0.671875 -0.359375 -1.015625 -0.890625q-0.328125 -0.53125 -0.328125 -1.1875q0 -0.71875 0.40625 -1.34375q0.40625 -0.625 1.1875 -0.953125q0.796875 -0.328125 1.765625 -0.328125q1.046875 0 1.859375 0.34375q0.8125 0.34375 1.25 1.015625q0.4375 0.65625 0.46875 1.484375l-1.203125 0.09375q-0.109375 -0.90625 -0.671875 -1.359375q-0.5625 -0.46875 -1.65625 -0.46875q-1.140625 0 -1.671875 0.421875q-0.515625 0.421875 -0.515625 1.015625q0 0.515625 0.359375 0.84375q0.375 0.328125 1.90625 0.6875q1.546875 0.34375 2.109375 0.59375q0.84375 0.390625 1.234375 0.984375q0.390625 0.578125 0.390625 1.359375q0 0.75 -0.4375 1.4375q-0.421875 0.671875 -1.25 1.046875q-0.8125 0.359375 -1.828125 0.359375q-1.296875 0 -2.171875 -0.375q-0.875 -0.375 -1.375 -1.125q-0.5 -0.765625 -0.53125 -1.71875zm9.3272705 3.0625l0 -9.546875l3.59375 0q0.953125 0 1.453125 0.09375q0.703125 0.125 1.171875 0.453125q0.484375 0.328125 0.765625 0.921875q0.296875 0.59375 0.296875 1.296875q0 1.21875 -0.78125 2.0625q-0.765625 0.84375 -2.796875 0.84375l-2.4375 0l0 3.875l-1.265625 0zm1.265625 -5.0l2.453125 0q1.234375 0 1.75 -0.453125q0.515625 -0.46875 0.515625 -1.28125q0 -0.609375 -0.3125 -1.03125q-0.296875 -0.421875 -0.796875 -0.5625q-0.3125 -0.09375 -1.171875 -0.09375l-2.4375 0l0 3.421875zm7.8428345 5.0l0 -9.546875l1.25 0l0 9.546875l-1.25 0zm7.202881 0l0 -9.546875l4.234375 0q1.265625 0 1.921875 0.265625q0.671875 0.25 1.0625 0.90625q0.40625 0.65625 0.40625 1.4375q0 1.015625 -0.65625 1.71875q-0.65625 0.6875 -2.03125 0.875q0.5 0.25 0.765625 0.484375q0.546875 0.5 1.046875 1.265625l1.65625 2.59375l-1.578125 0l-1.265625 -1.984375q-0.5625 -0.859375 -0.921875 -1.3125q-0.34375 -0.453125 -0.640625 -0.640625q-0.28125 -0.1875 -0.5625 -0.25q-0.21875 -0.046875 -0.703125 -0.046875l-1.46875 0l0 4.234375l-1.265625 0zm1.265625 -5.328125l2.71875 0q0.859375 0 1.34375 -0.171875q0.484375 -0.1875 0.734375 -0.578125q0.265625 -0.390625 0.265625 -0.859375q0 -0.671875 -0.5 -1.109375q-0.484375 -0.4375 -1.546875 -0.4375l-3.015625 0l0 3.15625zm12.921997 3.109375l1.203125 0.140625q-0.28125 1.0625 -1.0625 1.65625q-0.765625 0.578125 -1.96875 0.578125q-1.515625 0 -2.40625 -0.9375q-0.890625 -0.9375 -0.890625 -2.609375q0 -1.75 0.890625 -2.703125q0.90625 -0.96875 2.34375 -0.96875q1.390625 0 2.265625 0.9375q0.875 0.9375 0.875 2.65625q0 0.109375 0 0.3125l-5.15625 0q0.0625 1.140625 0.640625 1.75q0.578125 0.59375 1.4375 0.59375q0.65625 0 1.109375 -0.328125q0.453125 -0.34375 0.71875 -1.078125zm-3.84375 -1.90625l3.859375 0q-0.078125 -0.859375 -0.4375 -1.296875q-0.5625 -0.6875 -1.453125 -0.6875q-0.8125 0 -1.359375 0.546875q-0.546875 0.53125 -0.609375 1.4375zm6.0531006 2.0625l1.15625 -0.1875q0.109375 0.703125 0.546875 1.078125q0.453125 0.359375 1.25 0.359375q0.8125 0 1.203125 -0.328125q0.390625 -0.328125 0.390625 -0.765625q0 -0.390625 -0.359375 -0.625q-0.234375 -0.15625 -1.1875 -0.390625q-1.296875 -0.328125 -1.796875 -0.5625q-0.484375 -0.25 -0.75 -0.65625q-0.25 -0.421875 -0.25 -0.9375q0 -0.453125 0.203125 -0.84375q0.21875 -0.40625 0.578125 -0.671875q0.28125 -0.1875 0.75 -0.328125q0.46875 -0.140625 1.015625 -0.140625q0.8125 0 1.421875 0.234375q0.609375 0.234375 0.90625 0.640625q0.296875 0.390625 0.40625 1.0625l-1.140625 0.15625q-0.078125 -0.53125 -0.453125 -0.828125q-0.375 -0.3125 -1.0625 -0.3125q-0.8125 0 -1.15625 0.265625q-0.34375 0.265625 -0.34375 0.625q0 0.234375 0.140625 0.421875q0.15625 0.1875 0.453125 0.3125q0.171875 0.0625 1.03125 0.296875q1.25 0.328125 1.734375 0.546875q0.5 0.203125 0.78125 0.609375q0.28125 0.40625 0.28125 1.0q0 0.59375 -0.34375 1.109375q-0.34375 0.515625 -1.0 0.796875q-0.640625 0.28125 -1.453125 0.28125q-1.34375 0 -2.046875 -0.5625q-0.703125 -0.5625 -0.90625 -1.65625zm11.8671875 -0.15625l1.203125 0.140625q-0.28125 1.0625 -1.0625 1.65625q-0.765625 0.578125 -1.96875 0.578125q-1.515625 0 -2.40625 -0.9375q-0.890625 -0.9375 -0.890625 -2.609375q0 -1.75 0.890625 -2.703125q0.90625 -0.96875 2.34375 -0.96875q1.390625 0 2.265625 0.9375q0.875 0.9375 0.875 2.65625q0 0.109375 0 0.3125l-5.15625 0q0.0625 1.140625 0.640625 1.75q0.578125 0.59375 1.4375 0.59375q0.65625 0 1.109375 -0.328125q0.453125 -0.34375 0.71875 -1.078125zm-3.84375 -1.90625l3.859375 0q-0.078125 -0.859375 -0.4375 -1.296875q-0.5625 -0.6875 -1.453125 -0.6875q-0.8125 0 -1.359375 0.546875q-0.546875 0.53125 -0.609375 1.4375zm9.084351 3.078125l0.171875 1.03125q-0.5 0.109375 -0.890625 0.109375q-0.640625 0 -1.0 -0.203125q-0.34375 -0.203125 -0.484375 -0.53125q-0.140625 -0.328125 -0.140625 -1.390625l0 -3.96875l-0.859375 0l0 -0.90625l0.859375 0l0 -1.71875l1.171875 -0.703125l0 2.421875l1.171875 0l0 0.90625l-1.171875 0l0 4.046875q0 0.5 0.046875 0.640625q0.0625 0.140625 0.203125 0.234375q0.140625 0.078125 0.40625 0.078125q0.203125 0 0.515625 -0.046875z" fill-rule="nonzero"/><path fill="#000000" fill-opacity="0.0" d="m577.8373 283.8071l84.409424 0l0 35.55905l-84.409424 0z" fill-rule="evenodd"/><path fill="#000000" d="m607.1855 302.5446l1.203125 -0.109375q0.078125 0.71875 0.390625 1.1875q0.3125 0.453125 0.953125 0.734375q0.65625 0.28125 1.46875 0.28125q0.71875 0 1.265625 -0.21875q0.5625 -0.21875 0.828125 -0.578125q0.265625 -0.375 0.265625 -0.828125q0 -0.453125 -0.265625 -0.78125q-0.25 -0.328125 -0.84375 -0.5625q-0.390625 -0.15625 -1.703125 -0.46875q-1.3125 -0.3125 -1.84375 -0.59375q-0.671875 -0.359375 -1.015625 -0.890625q-0.328125 -0.53125 -0.328125 -1.1875q0 -0.71875 0.40625 -1.34375q0.40625 -0.625 1.1875 -0.953125q0.796875 -0.328125 1.765625 -0.328125q1.046875 0 1.859375 0.34375q0.8125 0.34375 1.25 1.015625q0.4375 0.65625 0.46875 1.484375l-1.203125 0.09375q-0.109375 -0.90625 -0.671875 -1.359375q-0.5625 -0.46875 -1.65625 -0.46875q-1.140625 0 -1.671875 0.421875q-0.515625 0.421875 -0.515625 1.015625q0 0.515625 0.359375 0.84375q0.375 0.328125 1.90625 0.6875q1.546875 0.34375 2.109375 0.59375q0.84375 0.390625 1.234375 0.984375q0.390625 0.578125 0.390625 1.359375q0 0.75 -0.4375 1.4375q-0.421875 0.671875 -1.25 1.046875q-0.8125 0.359375 -1.828125 0.359375q-1.296875 0 -2.171875 -0.375q-0.875 -0.375 -1.375 -1.125q-0.5 -0.765625 -0.53125 -1.71875zm9.3272705 3.0625l0 -9.546875l3.59375 0q0.953125 0 1.453125 0.09375q0.703125 0.125 1.171875 0.453125q0.484375 0.328125 0.765625 0.921875q0.296875 0.59375 0.296875 1.296875q0 1.21875 -0.78125 2.0625q-0.765625 0.84375 -2.796875 0.84375l-2.4375 0l0 3.875l-1.265625 0zm1.265625 -5.0l2.453125 0q1.234375 0 1.75 -0.453125q0.515625 -0.46875 0.515625 -1.28125q0 -0.609375 -0.3125 -1.03125q-0.296875 -0.421875 -0.796875 -0.5625q-0.3125 -0.09375 -1.171875 -0.09375l-2.4375 0l0 3.421875zm7.8428955 5.0l0 -9.546875l1.25 0l0 9.546875l-1.25 0zm8.843445 0l-2.53125 -9.546875l1.296875 0l1.453125 6.265625q0.234375 0.984375 0.40625 1.953125q0.359375 -1.53125 0.421875 -1.765625l1.828125 -6.453125l1.515625 0l1.375 4.828125q0.515625 1.796875 0.734375 3.390625q0.1875 -0.90625 0.484375 -2.078125l1.484375 -6.140625l1.28125 0l-2.625 9.546875l-1.21875 0l-2.0 -7.265625q-0.265625 -0.921875 -0.3125 -1.125q-0.140625 0.65625 -0.28125 1.125l-2.015625 7.265625l-1.296875 0zm10.923462 0l0 -9.546875l3.59375 0q0.953125 0 1.453125 0.09375q0.703125 0.125 1.171875 0.453125q0.484375 0.328125 0.765625 0.921875q0.296875 0.59375 0.296875 1.296875q0 1.21875 -0.78125 2.0625q-0.765625 0.84375 -2.796875 0.84375l-2.4375 0l0 3.875l-1.265625 0zm1.265625 -5.0l2.453125 0q1.234375 0 1.75 -0.453125q0.515625 -0.46875 0.515625 -1.28125q0 -0.609375 -0.3125 -1.03125q-0.296875 -0.421875 -0.796875 -0.5625q-0.3125 -0.09375 -1.171875 -0.09375l-2.4375 0l0 3.421875z" fill-rule="nonzero"/><path fill="#000000" fill-opacity="0.0" d="m662.2467 275.00394l99.80902 0l0 0.06298828l99.81305 0" fill-rule="evenodd"/><path stroke="#000000" stroke-width="2.0" stroke-linejoin="round" stroke-linecap="butt" d="m662.2467 275.00394l99.80908 0l0 0.06298828l87.81299 0" fill-rule="evenodd"/><path fill="#000000" stroke="#000000" stroke-width="2.0" stroke-linecap="butt" d="m849.8688 278.3704l9.076172 -3.3034668l-9.076172 -3.3034668z" fill-rule="evenodd"/><path fill="#000000" fill-opacity="0.0" d="m662.2467 301.5866l99.80902 0l0 0.06298828l99.81305 0" fill-rule="evenodd"/><path stroke="#ff0000" stroke-width="2.0" stroke-linejoin="round" stroke-linecap="butt" d="m662.2467 301.5866l99.80908 0l0 0.06298828l87.81299 0" fill-rule="evenodd"/><path fill="#ff0000" stroke="#ff0000" stroke-width="2.0" stroke-linecap="butt" d="m849.8688 304.95306l9.076172 -3.3034668l-9.076172 -3.3034668z" fill-rule="evenodd"/><path fill="#000000" fill-opacity="0.0" d="m431.85303 73.7126l92.346436 0l0 35.55905l-92.346436 0z" fill-rule="evenodd"/><path fill="#000000" d="m441.44678 92.450096l1.203125 -0.109375q0.078125 0.71875 0.390625 1.1875q0.3125 0.453125 0.953125 0.734375q0.65625 0.28125 1.46875 0.28125q0.71875 0 1.265625 -0.21875q0.5625 -0.21875 0.828125 -0.578125q0.265625 -0.375 0.265625 -0.828125q0 -0.453125 -0.265625 -0.78125q-0.25 -0.328125 -0.84375 -0.5625q-0.390625 -0.15625 -1.703125 -0.46875q-1.3125 -0.3125 -1.84375 -0.59375q-0.671875 -0.359375 -1.015625 -0.890625q-0.328125 -0.53125 -0.328125 -1.1875q0 -0.71875 0.40625 -1.34375q0.40625 -0.625 1.1875 -0.953125q0.796875 -0.328125 1.765625 -0.328125q1.046875 0 1.859375 0.34375q0.8125 0.34375 1.25 1.015625q0.4375 0.65625 0.46875 1.484375l-1.203125 0.09375q-0.109375 -0.90625 -0.671875 -1.359375q-0.5625 -0.46875 -1.65625 -0.46875q-1.140625 0 -1.671875 0.421875q-0.515625 0.421875 -0.515625 1.015625q0 0.515625 0.359375 0.84375q0.375 0.328125 1.90625 0.6875q1.546875 0.34375 2.109375 0.59375q0.84375 0.390625 1.234375 0.984375q0.390625 0.578125 0.390625 1.359375q0 0.75 -0.4375 1.4375q-0.421875 0.671875 -1.25 1.046875q-0.8125 0.359375 -1.828125 0.359375q-1.296875 0 -2.171875 -0.375q-0.875 -0.375 -1.375 -1.125q-0.5 -0.765625 -0.53125 -1.71875zm9.32724 3.0625l0 -9.546875l3.59375 0q0.953125 0 1.453125 0.09375q0.703125 0.125 1.171875 0.453125q0.484375 0.328125 0.765625 0.921875q0.296875 0.59375 0.296875 1.296875q0 1.21875 -0.78125 2.0625q-0.765625 0.84375 -2.796875 0.84375l-2.4375 0l0 3.875l-1.265625 0zm1.265625 -5.0l2.453125 0q1.234375 0 1.75 -0.453125q0.515625 -0.46875 0.515625 -1.28125q0 -0.609375 -0.3125 -1.03125q-0.296875 -0.421875 -0.796875 -0.5625q-0.3125 -0.09375 -1.171875 -0.09375l-2.4375 0l0 3.421875zm7.8428955 5.0l0 -9.546875l1.25 0l0 9.546875l-1.25 0zm7.1872253 0l0 -9.546875l3.28125 0q1.109375 0 1.703125 0.140625q0.8125 0.1875 1.390625 0.6875q0.765625 0.640625 1.140625 1.640625q0.375 0.984375 0.375 2.25q0 1.09375 -0.265625 1.9375q-0.25 0.828125 -0.65625 1.390625q-0.390625 0.546875 -0.859375 0.859375q-0.46875 0.3125 -1.140625 0.484375q-0.65625 0.15625 -1.53125 0.15625l-3.4375 0zm1.265625 -1.125l2.03125 0q0.9375 0 1.46875 -0.171875q0.546875 -0.1875 0.875 -0.5q0.4375 -0.453125 0.6875 -1.203125q0.25 -0.765625 0.25 -1.84375q0 -1.5 -0.5 -2.296875q-0.484375 -0.8125 -1.1875 -1.078125q-0.5 -0.203125 -1.625 -0.203125l-2.0 0l0 7.296875zm12.937653 -1.09375l1.203125 0.140625q-0.28125 1.0625 -1.0625 1.65625q-0.765625 0.578125 -1.96875 0.578125q-1.515625 0 -2.40625 -0.9375q-0.890625 -0.9375 -0.890625 -2.609375q0 -1.75 0.890625 -2.703125q0.90625 -0.96875 2.34375 -0.96875q1.390625 0 2.265625 0.9375q0.875 0.9375 0.875 2.65625q0 0.109375 0 0.3125l-5.15625 0q0.0625 1.140625 0.640625 1.75q0.578125 0.59375 1.4375 0.59375q0.65625 0 1.109375 -0.328125q0.453125 -0.34375 0.71875 -1.078125zm-3.84375 -1.90625l3.859375 0q-0.078125 -0.859375 -0.4375 -1.296875q-0.5625 -0.6875 -1.453125 -0.6875q-0.8125 0 -1.359375 0.546875q-0.546875 0.53125 -0.609375 1.4375zm8.443726 4.125l-2.625 -6.90625l1.234375 0l1.484375 4.140625q0.234375 0.65625 0.4375 1.390625q0.15625 -0.546875 0.4375 -1.3125l1.53125 -4.21875l1.21875 0l-2.625 6.90625l-1.09375 0zm4.7578125 -8.1875l0 -1.359375l1.171875 0l0 1.359375l-1.171875 0zm0 8.1875l0 -6.90625l1.171875 0l0 6.90625l-1.171875 0zm7.46109 -2.53125l1.15625 0.15625q-0.1875 1.1875 -0.96875 1.859375q-0.78125 0.671875 -1.921875 0.671875q-1.40625 0 -2.28125 -0.921875q-0.859375 -0.9375 -0.859375 -2.65625q0 -1.125 0.375 -1.96875q0.375 -0.84375 1.125 -1.25q0.765625 -0.421875 1.65625 -0.421875q1.125 0 1.84375 0.578125q0.71875 0.5625 0.921875 1.609375l-1.140625 0.171875q-0.171875 -0.703125 -0.59375 -1.046875q-0.40625 -0.359375 -0.984375 -0.359375q-0.890625 0 -1.453125 0.640625q-0.546875 0.640625 -0.546875 2.0q0 1.40625 0.53125 2.03125q0.546875 0.625 1.40625 0.625q0.6875 0 1.140625 -0.421875q0.46875 -0.421875 0.59375 -1.296875zm6.8828125 0.3125l1.203125 0.140625q-0.28125 1.0625 -1.0625 1.65625q-0.765625 0.578125 -1.96875 0.578125q-1.515625 0 -2.40625 -0.9375q-0.890625 -0.9375 -0.890625 -2.609375q0 -1.75 0.890625 -2.703125q0.90625 -0.96875 2.34375 -0.96875q1.390625 0 2.265625 0.9375q0.875 0.9375 0.875 2.65625q0 0.109375 0 0.3125l-5.15625 0q0.0625 1.140625 0.640625 1.75q0.578125 0.59375 1.4375 0.59375q0.65625 0 1.109375 -0.328125q0.453125 -0.34375 0.71875 -1.078125zm-3.84375 -1.90625l3.859375 0q-0.078125 -0.859375 -0.4375 -1.296875q-0.5625 -0.6875 -1.453125 -0.6875q-0.8125 0 -1.359375 0.546875q-0.546875 0.53125 -0.609375 1.4375z" fill-rule="nonzero"/><path fill="#000000" fill-opacity="0.0" d="m431.85303 202.70473l108.25195 0l0 35.55905l-108.25195 0z" fill-rule="evenodd"/><path fill="#000000" d="m441.8999 224.50473l0 -9.546875l4.234375 0q1.265625 0 1.921875 0.265625q0.671875 0.25 1.0625 0.90625q0.40625 0.65625 0.40625 1.4375q0 1.015625 -0.65625 1.71875q-0.65625 0.6875 -2.03125 0.875q0.5 0.25 0.765625 0.484375q0.546875 0.5 1.046875 1.265625l1.65625 2.59375l-1.578125 0l-1.265625 -1.984375q-0.5625 -0.859375 -0.921875 -1.3125q-0.34375 -0.453125 -0.640625 -0.640625q-0.28125 -0.1875 -0.5625 -0.25q-0.21875 -0.046875 -0.703125 -0.046875l-1.46875 0l0 4.234375l-1.265625 0zm1.265625 -5.328125l2.71875 0q0.859375 0 1.34375 -0.171875q0.484375 -0.1875 0.734375 -0.578125q0.265625 -0.390625 0.265625 -0.859375q0 -0.671875 -0.5 -1.109375q-0.484375 -0.4375 -1.546875 -0.4375l-3.015625 0l0 3.15625zm7.9064026 2.265625l1.203125 -0.109375q0.078125 0.71875 0.390625 1.1875q0.3125 0.453125 0.953125 0.734375q0.65625 0.28125 1.46875 0.28125q0.71875 0 1.265625 -0.21875q0.5625 -0.21875 0.828125 -0.578125q0.265625 -0.375 0.265625 -0.828125q0 -0.453125 -0.265625 -0.78125q-0.25 -0.328125 -0.84375 -0.5625q-0.390625 -0.15625 -1.703125 -0.46875q-1.3125 -0.3125 -1.84375 -0.59375q-0.671875 -0.359375 -1.015625 -0.890625q-0.328125 -0.53125 -0.328125 -1.1875q0 -0.71875 0.40625 -1.34375q0.40625 -0.625 1.1875 -0.953125q0.796875 -0.328125 1.765625 -0.328125q1.046875 0 1.859375 0.34375q0.8125 0.34375 1.25 1.015625q0.4375 0.65625 0.46875 1.484375l-1.203125 0.09375q-0.109375 -0.90625 -0.671875 -1.359375q-0.5625 -0.46875 -1.65625 -0.46875q-1.140625 0 -1.671875 0.421875q-0.515625 0.421875 -0.515625 1.015625q0 0.515625 0.359375 0.84375q0.375 0.328125 1.90625 0.6875q1.546875 0.34375 2.109375 0.59375q0.84375 0.390625 1.234375 0.984375q0.390625 0.578125 0.390625 1.359375q0 0.75 -0.4375 1.4375q-0.421875 0.671875 -1.25 1.046875q-0.8125 0.359375 -1.828125 0.359375q-1.296875 0 -2.171875 -0.375q-0.875 -0.375 -1.375 -1.125q-0.5 -0.765625 -0.53125 -1.71875zm11.749115 3.0625l0 -8.421875l-3.140625 0l0 -1.125l7.5625 0l0 1.125l-3.15625 0l0 8.421875l-1.265625 0zm15.978455 -3.34375l1.265625 0.3125q-0.390625 1.5625 -1.421875 2.375q-1.03125 0.8125 -2.53125 0.8125q-1.53125 0 -2.5 -0.625q-0.96875 -0.625 -1.484375 -1.8125q-0.5 -1.1875 -0.5 -2.5625q0 -1.484375 0.5625 -2.59375q0.578125 -1.109375 1.625 -1.6875q1.0625 -0.578125 2.328125 -0.578125q1.421875 0 2.390625 0.734375q0.984375 0.71875 1.375 2.046875l-1.25 0.296875q-0.328125 -1.046875 -0.96875 -1.515625q-0.625 -0.484375 -1.578125 -0.484375q-1.09375 0 -1.84375 0.53125q-0.734375 0.53125 -1.03125 1.421875q-0.296875 0.875 -0.296875 1.828125q0 1.21875 0.34375 2.125q0.359375 0.90625 1.109375 1.359375q0.75 0.4375 1.625 0.4375q1.0625 0 1.796875 -0.609375q0.734375 -0.609375 0.984375 -1.8125zm2.2345276 -0.109375q0 -1.921875 1.078125 -2.84375q0.890625 -0.765625 2.171875 -0.765625q1.421875 0 2.328125 0.9375q0.90625 0.921875 0.90625 2.578125q0 1.328125 -0.40625 2.09375q-0.390625 0.765625 -1.15625 1.1875q-0.765625 0.421875 -1.671875 0.421875q-1.453125 0 -2.359375 -0.921875q-0.890625 -0.9375 -0.890625 -2.6875zm1.203125 0q0 1.328125 0.578125 1.984375q0.59375 0.65625 1.46875 0.65625q0.875 0 1.453125 -0.65625q0.578125 -0.671875 0.578125 -2.03125q0 -1.28125 -0.59375 -1.9375q-0.578125 -0.65625 -1.4375 -0.65625q-0.875 0 -1.46875 0.65625q-0.578125 0.65625 -0.578125 1.984375zm6.6468506 3.453125l0 -6.90625l1.0625 0l0 0.984375q0.75 -1.140625 2.1875 -1.140625q0.625 0 1.15625 0.21875q0.53125 0.21875 0.78125 0.59375q0.265625 0.359375 0.375 0.859375q0.0625 0.328125 0.0625 1.140625l0 4.25l-1.171875 0l0 -4.203125q0 -0.71875 -0.140625 -1.0625q-0.140625 -0.359375 -0.484375 -0.5625q-0.34375 -0.21875 -0.8125 -0.21875q-0.75 0 -1.296875 0.46875q-0.546875 0.46875 -0.546875 1.796875l0 3.78125l-1.171875 0zm9.974976 -1.046875l0.171875 1.03125q-0.5 0.109375 -0.890625 0.109375q-0.640625 0 -1.0 -0.203125q-0.34375 -0.203125 -0.484375 -0.53125q-0.140625 -0.328125 -0.140625 -1.390625l0 -3.96875l-0.859375 0l0 -0.90625l0.859375 0l0 -1.71875l1.171875 -0.703125l0 2.421875l1.171875 0l0 0.90625l-1.171875 0l0 4.046875q0 0.5 0.046875 0.640625q0.0625 0.140625 0.203125 0.234375q0.140625 0.078125 0.40625 0.078125q0.203125 0 0.515625 -0.046875zm1.1248779 1.046875l0 -6.90625l1.0625 0l0 1.046875q0.40625 -0.734375 0.734375 -0.96875q0.34375 -0.234375 0.765625 -0.234375q0.59375 0 1.203125 0.375l-0.40625 1.078125q-0.4375 -0.25 -0.859375 -0.25q-0.390625 0 -0.703125 0.234375q-0.296875 0.234375 -0.421875 0.640625q-0.203125 0.625 -0.203125 1.359375l0 3.625l-1.171875 0zm4.0164795 -3.453125q0 -1.921875 1.078125 -2.84375q0.890625 -0.765625 2.171875 -0.765625q1.421875 0 2.328125 0.9375q0.90625 0.921875 0.90625 2.578125q0 1.328125 -0.40625 2.09375q-0.390625 0.765625 -1.15625 1.1875q-0.765625 0.421875 -1.671875 0.421875q-1.453125 0 -2.359375 -0.921875q-0.890625 -0.9375 -0.890625 -2.6875zm1.203125 0q0 1.328125 0.578125 1.984375q0.59375 0.65625 1.46875 0.65625q0.875 0 1.453125 -0.65625q0.578125 -0.671875 0.578125 -2.03125q0 -1.28125 -0.59375 -1.9375q-0.578125 -0.65625 -1.4375 -0.65625q-0.875 0 -1.46875 0.65625q-0.578125 0.65625 -0.578125 1.984375zm6.6312256 3.453125l0 -9.546875l1.1719055 0l0 9.546875l-1.1719055 0z" fill-rule="nonzero"/><path fill="#000000" fill-opacity="0.0" d="m431.85303 238.26378l126.11023 0l0 35.559067l-126.11023 0z" fill-rule="evenodd"/><path fill="#000000" d="m441.8999 260.06378l0 -9.546875l4.234375 0q1.265625 0 1.921875 0.265625q0.671875 0.25 1.0625 0.90625q0.40625 0.65625 0.40625 1.4375q0 1.015625 -0.65625 1.71875q-0.65625 0.6875 -2.03125 0.875q0.5 0.25 0.765625 0.484375q0.546875 0.5 1.046875 1.265625l1.65625 2.59375l-1.578125 0l-1.265625 -1.984375q-0.5625 -0.859375 -0.921875 -1.3125q-0.34375 -0.453125 -0.640625 -0.640625q-0.28125 -0.1875 -0.5625 -0.25q-0.21875 -0.046875 -0.703125 -0.046875l-1.46875 0l0 4.234375l-1.265625 0zm1.265625 -5.328125l2.71875 0q0.859375 0 1.34375 -0.171875q0.484375 -0.1875 0.734375 -0.578125q0.265625 -0.390625 0.265625 -0.859375q0 -0.671875 -0.5 -1.109375q-0.484375 -0.4375 -1.546875 -0.4375l-3.015625 0l0 3.15625zm7.9064026 2.265625l1.203125 -0.109375q0.078125 0.71875 0.390625 1.1875q0.3125 0.453125 0.953125 0.734375q0.65625 0.28125 1.46875 0.28125q0.71875 0 1.265625 -0.21875q0.5625 -0.21875 0.828125 -0.578125q0.265625 -0.375 0.265625 -0.828125q0 -0.453125 -0.265625 -0.78125q-0.25 -0.328125 -0.84375 -0.5625q-0.390625 -0.15625 -1.703125 -0.46875q-1.3125 -0.3125 -1.84375 -0.59375q-0.671875 -0.359375 -1.015625 -0.890625q-0.328125 -0.53125 -0.328125 -1.1875q0 -0.71875 0.40625 -1.34375q0.40625 -0.625 1.1875 -0.953125q0.796875 -0.328125 1.765625 -0.328125q1.046875 0 1.859375 0.34375q0.8125 0.34375 1.25 1.015625q0.4375 0.65625 0.46875 1.484375l-1.203125 0.09375q-0.109375 -0.90625 -0.671875 -1.359375q-0.5625 -0.46875 -1.65625 -0.46875q-1.140625 0 -1.671875 0.421875q-0.515625 0.421875 -0.515625 1.015625q0 0.515625 0.359375 0.84375q0.375 0.328125 1.90625 0.6875q1.546875 0.34375 2.109375 0.59375q0.84375 0.390625 1.234375 0.984375q0.390625 0.578125 0.390625 1.359375q0 0.75 -0.4375 1.4375q-0.421875 0.671875 -1.25 1.046875q-0.8125 0.359375 -1.828125 0.359375q-1.296875 0 -2.171875 -0.375q-0.875 -0.375 -1.375 -1.125q-0.5 -0.765625 -0.53125 -1.71875zm11.749115 3.0625l0 -8.421875l-3.140625 0l0 -1.125l7.5625 0l0 1.125l-3.15625 0l0 8.421875l-1.265625 0zm9.134705 0l0 -9.546875l1.90625 0l2.25 6.765625q0.3125 0.9375 0.46875 1.40625q0.15625 -0.515625 0.5 -1.53125l2.28125 -6.640625l1.703125 0l0 9.546875l-1.21875 0l0 -7.984375l-2.765625 7.984375l-1.140625 0l-2.765625 -8.125l0 8.125l-1.21875 0zm10.5555725 -3.453125q0 -1.921875 1.078125 -2.84375q0.890625 -0.765625 2.171875 -0.765625q1.421875 0 2.328125 0.9375q0.90625 0.921875 0.90625 2.578125q0 1.328125 -0.40625 2.09375q-0.390625 0.765625 -1.15625 1.1875q-0.765625 0.421875 -1.671875 0.421875q-1.453125 0 -2.359375 -0.921875q-0.890625 -0.9375 -0.890625 -2.6875zm1.203125 0q0 1.328125 0.578125 1.984375q0.59375 0.65625 1.46875 0.65625q0.875 0 1.453125 -0.65625q0.578125 -0.671875 0.578125 -2.03125q0 -1.28125 -0.59375 -1.9375q-0.578125 -0.65625 -1.4375 -0.65625q-0.875 0 -1.46875 0.65625q-0.578125 0.65625 -0.578125 1.984375zm6.6468506 3.453125l0 -6.90625l1.0625 0l0 0.984375q0.75 -1.140625 2.1875 -1.140625q0.625 0 1.15625 0.21875q0.53125 0.21875 0.78125 0.59375q0.265625 0.359375 0.375 0.859375q0.0625 0.328125 0.0625 1.140625l0 4.25l-1.171875 0l0 -4.203125q0 -0.71875 -0.140625 -1.0625q-0.140625 -0.359375 -0.484375 -0.5625q-0.34375 -0.21875 -0.8125 -0.21875q-0.75 0 -1.296875 0.46875q-0.546875 0.46875 -0.546875 1.796875l0 3.78125l-1.171875 0zm7.4281006 -8.1875l0 -1.359375l1.171875 0l0 1.359375l-1.171875 0zm0 8.1875l0 -6.90625l1.171875 0l0 6.90625l-1.171875 0zm5.507965 -1.046875l0.171875 1.03125q-0.5 0.109375 -0.890625 0.109375q-0.640625 0 -1.0 -0.203125q-0.34375 -0.203125 -0.484375 -0.53125q-0.140625 -0.328125 -0.140625 -1.390625l0 -3.96875l-0.859375 0l0 -0.90625l0.859375 0l0 -1.71875l1.171875 -0.703125l0 2.421875l1.171875 0l0 0.90625l-1.171875 0l0 4.046875q0 0.5 0.046875 0.640625q0.0625 0.140625 0.203125 0.234375q0.140625 0.078125 0.40625 0.078125q0.203125 0 0.515625 -0.046875zm0.7029724 -2.40625q0 -1.921875 1.078125 -2.84375q0.890625 -0.765625 2.171875 -0.765625q1.421875 0 2.328125 0.9375q0.90625 0.921875 0.90625 2.578125q0 1.328125 -0.40625 2.09375q-0.390625 0.765625 -1.15625 1.1875q-0.765625 0.421875 -1.671875 0.421875q-1.453125 0 -2.359375 -0.921875q-0.890625 -0.9375 -0.890625 -2.6875zm1.203125 0q0 1.328125 0.578125 1.984375q0.59375 0.65625 1.46875 0.65625q0.875 0 1.453125 -0.65625q0.578125 -0.671875 0.578125 -2.03125q0 -1.28125 -0.59375 -1.9375q-0.578125 -0.65625 -1.4375 -0.65625q-0.875 0 -1.46875 0.65625q-0.578125 0.65625 -0.578125 1.984375zm6.6312256 3.453125l0 -6.90625l1.0625305 0l0 1.046875q0.40625 -0.734375 0.734375 -0.96875q0.34375 -0.234375 0.765625 -0.234375q0.59375 0 1.203125 0.375l-0.40625 1.078125q-0.4375 -0.25 -0.859375 -0.25q-0.390625 0 -0.703125 0.234375q-0.296875 0.234375 -0.421875 0.640625q-0.203125 0.625 -0.203125 1.359375l0 3.625l-1.1719055 0zm4.469635 -8.1875l0 -1.359375l1.171875 0l0 1.359375l-1.171875 0zm0 8.1875l0 -6.90625l1.171875 0l0 6.90625l-1.171875 0zm2.9454346 0l0 -6.90625l1.0625 0l0 0.984375q0.75 -1.140625 2.1875 -1.140625q0.625 0 1.15625 0.21875q0.53125 0.21875 0.78125 0.59375q0.265625 0.359375 0.375 0.859375q0.0625 0.328125 0.0625 1.140625l0 4.25l-1.171875 0l0 -4.203125q0 -0.71875 -0.140625 -1.0625q-0.140625 -0.359375 -0.484375 -0.5625q-0.34375 -0.21875 -0.8125 -0.21875q-0.75 0 -1.296875 0.46875q-0.546875 0.46875 -0.546875 1.796875l0 3.78125l-1.171875 0zm7.1937256 0.578125l1.140625 0.15625q0.078125 0.53125 0.40625 0.78125q0.4375 0.3125 1.1875 0.3125q0.8125 0 1.25 -0.328125q0.453125 -0.3125 0.609375 -0.90625q0.09375 -0.359375 0.078125 -1.5q-0.765625 0.90625 -1.90625 0.90625q-1.4375 0 -2.21875 -1.03125q-0.78125 -1.03125 -0.78125 -2.46875q0 -0.984375 0.359375 -1.8125q0.359375 -0.84375 1.03125 -1.296875q0.6875 -0.453125 1.609375 -0.453125q1.21875 0 2.015625 0.984375l0 -0.828125l1.078125 0l0 5.96875q0 1.609375 -0.328125 2.28125q-0.328125 0.6875 -1.046875 1.078125q-0.703125 0.390625 -1.75 0.390625q-1.234375 0 -2.0 -0.5625q-0.75 -0.5625 -0.734375 -1.671875zm0.984375 -4.15625q0 1.359375 0.53125 1.984375q0.546875 0.625 1.359375 0.625q0.796875 0 1.34375 -0.625q0.546875 -0.625 0.546875 -1.953125q0 -1.265625 -0.5625 -1.90625q-0.5625 -0.640625 -1.359375 -0.640625q-0.765625 0 -1.3125 0.640625q-0.546875 0.625 -0.546875 1.875z" fill-rule="nonzero"/><path fill="#000000" fill-opacity="0.0" d="m431.85303 308.8832l126.11023 0l0 35.55905l-126.11023 0z" fill-rule="evenodd"/><path fill="#000000" d="m448.13428 321.13632l1.265625 0l0 5.515625q0 1.4375 -0.328125 2.296875q-0.3125 0.84375 -1.171875 1.375q-0.84375 0.515625 -2.21875 0.515625q-1.34375 0 -2.203125 -0.453125q-0.84375 -0.46875 -1.21875 -1.34375q-0.359375 -0.875 -0.359375 -2.390625l0 -5.515625l1.265625 0l0 5.515625q0 1.234375 0.21875 1.828125q0.234375 0.59375 0.796875 0.921875q0.5625 0.3125 1.390625 0.3125q1.390625 0 1.96875 -0.625q0.59375 -0.640625 0.59375 -2.4375l0 -5.515625zm2.9376526 6.484375l1.203125 -0.109375q0.078125 0.71875 0.390625 1.1875q0.3125 0.453125 0.953125 0.734375q0.65625 0.28125 1.46875 0.28125q0.71875 0 1.265625 -0.21875q0.5625 -0.21875 0.828125 -0.578125q0.265625 -0.375 0.265625 -0.828125q0 -0.453125 -0.265625 -0.78125q-0.25 -0.328125 -0.84375 -0.5625q-0.390625 -0.15625 -1.703125 -0.46875q-1.3125 -0.3125 -1.84375 -0.59375q-0.671875 -0.359375 -1.015625 -0.890625q-0.328125 -0.53125 -0.328125 -1.1875q0 -0.71875 0.40625 -1.34375q0.40625 -0.625 1.1875 -0.953125q0.796875 -0.328125 1.765625 -0.328125q1.046875 0 1.859375 0.34375q0.8125 0.34375 1.25 1.015625q0.4375 0.65625 0.46875 1.484375l-1.203125 0.09375q-0.109375 -0.90625 -0.671875 -1.359375q-0.5625 -0.46875 -1.65625 -0.46875q-1.140625 0 -1.671875 0.421875q-0.515625 0.421875 -0.515625 1.015625q0 0.515625 0.359375 0.84375q0.375 0.328125 1.90625 0.6875q1.546875 0.34375 2.109375 0.59375q0.84375 0.390625 1.234375 0.984375q0.390625 0.578125 0.390625 1.359375q0 0.75 -0.4375 1.4375q-0.421875 0.671875 -1.25 1.046875q-0.8125 0.359375 -1.828125 0.359375q-1.296875 0 -2.171875 -0.375q-0.875 -0.375 -1.375 -1.125q-0.5 -0.765625 -0.53125 -1.71875zm9.26474 3.0625l0 -9.546875l3.59375 0q1.09375 0 1.75 0.296875q0.65625 0.28125 1.03125 0.890625q0.375 0.609375 0.375 1.265625q0 0.609375 -0.34375 1.15625q-0.328125 0.53125 -0.984375 0.859375q0.859375 0.25 1.328125 0.875q0.46875 0.609375 0.46875 1.4375q0 0.671875 -0.296875 1.25q-0.28125 0.578125 -0.703125 0.890625q-0.40625 0.3125 -1.03125 0.46875q-0.625 0.15625 -1.546875 0.15625l-3.640625 0zm1.265625 -5.53125l2.0625 0q0.84375 0 1.203125 -0.109375q0.484375 -0.140625 0.71875 -0.46875q0.25 -0.34375 0.25 -0.84375q0 -0.46875 -0.234375 -0.828125q-0.21875 -0.359375 -0.640625 -0.5q-0.421875 -0.140625 -1.453125 -0.140625l-1.90625 0l0 2.890625zm0 4.40625l2.375 0q0.609375 0 0.859375 -0.046875q0.4375 -0.078125 0.734375 -0.25q0.296875 -0.1875 0.484375 -0.53125q0.1875 -0.359375 0.1875 -0.8125q0 -0.53125 -0.28125 -0.921875q-0.265625 -0.40625 -0.75 -0.5625q-0.484375 -0.15625 -1.40625 -0.15625l-2.203125 0l0 3.28125z" fill-rule="nonzero"/><path fill="#c9daf8" d="m29.506561 28.8084l230.3937 0l0 396.25195l-230.3937 0z" fill-rule="evenodd"/><path stroke="#000000" stroke-width="1.0" stroke-linejoin="round" stroke-linecap="butt" d="m29.506561 28.8084l230.3937 0l0 396.25195l-230.3937 0z" fill-rule="evenodd"/><path fill="#000000" d="m95.43174 41.466522l2.140625 0l0 6.890625q0 1.203125 -0.515625 2.03125q-0.515625 0.8125 -1.421875 1.234375q-0.890625 0.40625 -2.046875 0.40625q-1.171875 0 -2.078125 -0.40625q-0.90625 -0.421875 -1.421875 -1.234375q-0.5 -0.828125 -0.5 -2.03125l0 -6.890625l2.140625 0l0 6.890625q0 0.703125 0.21875 1.140625q0.21875 0.4375 0.640625 0.65625q0.421875 0.203125 1.0 0.203125q0.578125 0 0.984375 -0.203125q0.421875 -0.21875 0.640625 -0.65625q0.21875 -0.4375 0.21875 -1.140625l0 -6.890625zm5.8329773 4.171875l0 9.234375l-2.0625 0l0 -10.734375l1.921875 0l0.140625 1.5zm4.90625 2.296875l0 0.140625q0 0.84375 -0.203125 1.578125q-0.1875 0.71875 -0.578125 1.25q-0.375 0.53125 -0.9375 0.828125q-0.5625 0.296875 -1.28125 0.296875q-0.71875 0 -1.25 -0.28125q-0.515625 -0.28125 -0.875 -0.796875q-0.34375 -0.53125 -0.5625 -1.21875q-0.203125 -0.6875 -0.328125 -1.46875l0 -0.390625q0.125 -0.84375 0.328125 -1.546875q0.21875 -0.71875 0.5625 -1.234375q0.359375 -0.515625 0.875 -0.796875q0.53125 -0.296875 1.234375 -0.296875q0.734375 0 1.296875 0.28125q0.5625 0.28125 0.9375 0.8125q0.390625 0.515625 0.578125 1.234375q0.203125 0.71875 0.203125 1.609375zm-2.0625 0.140625l0 -0.140625q0 -0.5 -0.09375 -0.90625q-0.078125 -0.421875 -0.25 -0.734375q-0.171875 -0.328125 -0.46875 -0.5q-0.28125 -0.171875 -0.671875 -0.171875q-0.421875 0 -0.71875 0.140625q-0.296875 0.125 -0.484375 0.390625q-0.1875 0.25 -0.28125 0.609375q-0.09375 0.359375 -0.109375 0.8125l0 0.984375q0.03125 0.53125 0.1875 0.953125q0.171875 0.421875 0.515625 0.671875q0.34375 0.234375 0.90625 0.234375q0.40625 0 0.6875 -0.171875q0.28125 -0.1875 0.453125 -0.5q0.171875 -0.328125 0.25 -0.75q0.078125 -0.4375 0.078125 -0.921875zm7.5253906 1.671875q0 -0.21875 -0.125 -0.390625q-0.125 -0.1875 -0.484375 -0.34375q-0.34375 -0.15625 -0.984375 -0.28125q-0.59375 -0.125 -1.09375 -0.3125q-0.5 -0.203125 -0.875 -0.484375q-0.375 -0.28125 -0.578125 -0.65625q-0.203125 -0.390625 -0.203125 -0.890625q0 -0.484375 0.203125 -0.90625q0.21875 -0.4375 0.609375 -0.765625q0.40625 -0.328125 0.96875 -0.515625q0.578125 -0.203125 1.3125 -0.203125q1.0 0 1.71875 0.328125q0.734375 0.3125 1.125 0.875q0.390625 0.5625 0.390625 1.28125l-2.0625 0q0 -0.296875 -0.125 -0.53125q-0.125 -0.25 -0.390625 -0.390625q-0.25 -0.140625 -0.671875 -0.140625q-0.34375 0 -0.59375 0.125q-0.25 0.125 -0.390625 0.328125q-0.125 0.1875 -0.125 0.421875q0 0.171875 0.078125 0.3125q0.078125 0.140625 0.25 0.265625q0.171875 0.109375 0.4375 0.203125q0.28125 0.09375 0.6875 0.171875q0.84375 0.171875 1.5 0.453125q0.65625 0.265625 1.03125 0.734375q0.390625 0.46875 0.390625 1.234375q0 0.515625 -0.234375 0.953125q-0.21875 0.421875 -0.65625 0.75q-0.421875 0.3125 -1.015625 0.484375q-0.59375 0.171875 -1.34375 0.171875q-1.078125 0 -1.828125 -0.375q-0.75 -0.390625 -1.140625 -0.984375q-0.375 -0.609375 -0.375 -1.234375l1.953125 0q0.015625 0.421875 0.21875 0.6875q0.203125 0.25 0.515625 0.375q0.328125 0.109375 0.703125 0.109375q0.390625 0 0.65625 -0.109375q0.265625 -0.125 0.40625 -0.3125q0.140625 -0.1875 0.140625 -0.4375zm7.1378784 -5.609375l0 1.46875l-4.515625 0l0 -1.46875l4.515625 0zm-3.390625 -1.90625l2.0625 0l0 7.328125q0 0.328125 0.078125 0.515625q0.09375 0.171875 0.265625 0.25q0.1875 0.0625 0.46875 0.0625q0.1875 0 0.34375 -0.015625q0.15625 -0.015625 0.265625 -0.046875l0 1.515625q-0.265625 0.09375 -0.578125 0.140625q-0.296875 0.046875 -0.671875 0.046875q-0.6875 0 -1.1875 -0.21875q-0.5 -0.234375 -0.78125 -0.734375q-0.265625 -0.5 -0.265625 -1.3125l0 -7.53125zm6.615616 3.609375l0 6.046875l-2.0625 0l0 -7.75l1.9375 0l0.125 1.703125zm2.34375 -1.75l-0.046875 1.921875q-0.140625 -0.03125 -0.359375 -0.046875q-0.203125 -0.015625 -0.375 -0.015625q-0.4375 0 -0.765625 0.109375q-0.3125 0.109375 -0.53125 0.328125q-0.203125 0.21875 -0.3125 0.53125q-0.09375 0.296875 -0.109375 0.6875l-0.421875 -0.125q0 -0.75 0.140625 -1.375q0.15625 -0.640625 0.4375 -1.109375q0.296875 -0.484375 0.71875 -0.734375q0.421875 -0.265625 0.96875 -0.265625q0.171875 0 0.34375 0.03125q0.1875 0.015625 0.3125 0.0625zm4.387474 7.9375q-0.8906326 0 -1.6093826 -0.28125q-0.71875 -0.296875 -1.21875 -0.8125q-0.5 -0.515625 -0.765625 -1.1875q-0.25 -0.6875 -0.25 -1.46875l0 -0.28125q0 -0.875 0.25 -1.609375q0.25 -0.734375 0.71875 -1.265625q0.46875 -0.546875 1.140625 -0.828125q0.671875 -0.296875 1.5156326 -0.296875q0.8125 0 1.453125 0.28125q0.640625 0.265625 1.0625 0.765625q0.4375 0.5 0.65625 1.203125q0.234375 0.703125 0.234375 1.546875l0 0.859375l-6.1562576 0l0 -1.375l4.1250076 0l0 -0.15625q0 -0.4375 -0.15625 -0.765625q-0.15625 -0.34375 -0.46875 -0.546875q-0.296875 -0.203125 -0.78125 -0.203125q-0.40625 0 -0.7031326 0.1875q-0.28125 0.171875 -0.46875 0.5q-0.1875 0.3125 -0.28125 0.75q-0.078125 0.4375 -0.078125 0.953125l0 0.28125q0 0.46875 0.125 0.859375q0.140625 0.390625 0.375 0.6875q0.25 0.28125 0.6093826 0.4375q0.359375 0.15625 0.8125 0.15625q0.546875 0 1.03125 -0.21875q0.484375 -0.21875 0.84375 -0.65625l1.0 1.078125q-0.25 0.359375 -0.671875 0.6875q-0.40625 0.3125 -1.0 0.515625q-0.59375 0.203125 -1.34375 0.203125zm8.5399475 -1.890625l0 -3.453125q0 -0.359375 -0.125 -0.625q-0.125 -0.28125 -0.375 -0.421875q-0.25 -0.15625 -0.65625 -0.15625q-0.34375 0 -0.59375 0.125q-0.25 0.109375 -0.390625 0.328125q-0.125 0.21875 -0.125 0.515625l-2.0625 0q0 -0.5 0.21875 -0.9375q0.234375 -0.4375 0.671875 -0.78125q0.4375 -0.34375 1.03125 -0.53125q0.609375 -0.203125 1.359375 -0.203125q0.90625 0 1.609375 0.3125q0.703125 0.296875 1.109375 0.90625q0.40625 0.59375 0.40625 1.484375l0 3.3125q0 0.640625 0.078125 1.046875q0.078125 0.40625 0.21875 0.703125l0 0.125l-2.078125 0q-0.15625 -0.3125 -0.234375 -0.78125q-0.0625 -0.484375 -0.0625 -0.96875zm0.265625 -2.96875l0.015625 1.171875l-1.15625 0q-0.40625 0 -0.703125 0.09375q-0.296875 0.09375 -0.5 0.265625q-0.1875 0.15625 -0.28125 0.390625q-0.078125 0.21875 -0.078125 0.484375q0 0.265625 0.109375 0.484375q0.125 0.203125 0.34375 0.328125q0.234375 0.109375 0.546875 0.109375q0.46875 0 0.8125 -0.1875q0.34375 -0.1875 0.53125 -0.453125q0.1875 -0.28125 0.203125 -0.53125l0.53125 0.875q-0.109375 0.296875 -0.3125 0.609375q-0.1875 0.3125 -0.5 0.59375q-0.296875 0.28125 -0.71875 0.453125q-0.421875 0.171875 -1.0 0.171875q-0.734375 0 -1.328125 -0.296875q-0.59375 -0.296875 -0.953125 -0.8125q-0.34375 -0.53125 -0.34375 -1.203125q0 -0.609375 0.234375 -1.078125q0.234375 -0.484375 0.671875 -0.796875q0.453125 -0.328125 1.125 -0.5q0.671875 -0.171875 1.5625 -0.171875l1.1875 0zm5.452759 -1.421875l0 6.140625l-2.0625 0l0 -7.75l1.9375 0l0.125 1.609375zm-0.28125 2.0l-0.578125 0q0 -0.8125 0.1875 -1.484375q0.203125 -0.6875 0.578125 -1.1875q0.390625 -0.515625 0.953125 -0.796875q0.578125 -0.28125 1.3125 -0.28125q0.515625 0 0.9375 0.15625q0.4375 0.15625 0.75 0.484375q0.3125 0.328125 0.484375 0.84375q0.171875 0.515625 0.171875 1.234375l0 5.171875l-2.0625 0l0 -4.9375q0 -0.53125 -0.140625 -0.8125q-0.140625 -0.296875 -0.40625 -0.40625q-0.25 -0.109375 -0.625 -0.109375q-0.390625 0 -0.6875 0.171875q-0.296875 0.15625 -0.5 0.453125q-0.1875 0.28125 -0.28125 0.671875q-0.09375 0.375 -0.09375 0.828125zm4.609375 -0.234375l-0.734375 0.09375q0 -0.765625 0.1875 -1.40625q0.1875 -0.65625 0.5625 -1.140625q0.375 -0.5 0.921875 -0.78125q0.5625 -0.28125 1.296875 -0.28125q0.5625 0 1.015625 0.171875q0.46875 0.15625 0.78125 0.5q0.328125 0.34375 0.5 0.90625q0.1875 0.5625 0.1875 1.375l0 4.9375l-2.078125 0l0 -4.9375q0 -0.546875 -0.140625 -0.828125q-0.140625 -0.28125 -0.40625 -0.390625q-0.25 -0.109375 -0.609375 -0.109375q-0.375 0 -0.65625 0.15625q-0.265625 0.140625 -0.453125 0.40625q-0.1875 0.25 -0.28125 0.59375q-0.09375 0.328125 -0.09375 0.734375zm13.275497 4.375l-2.265625 0l0.015625 -1.671875l2.25 0q0.84375 0 1.421875 -0.375q0.59375 -0.390625 0.890625 -1.125q0.296875 -0.75 0.296875 -1.78125l0 -0.515625q0 -0.796875 -0.171875 -1.40625q-0.171875 -0.609375 -0.5 -1.015625q-0.328125 -0.421875 -0.8125 -0.625q-0.484375 -0.21875 -1.09375 -0.21875l-2.34375 0l0 -1.6875l2.34375 0q1.046875 0 1.90625 0.359375q0.875 0.34375 1.5 1.015625q0.640625 0.65625 0.984375 1.578125q0.359375 0.90625 0.359375 2.015625l0 0.5q0 1.109375 -0.359375 2.03125q-0.34375 0.90625 -0.984375 1.5625q-0.625 0.65625 -1.5 1.015625q-0.875 0.34375 -1.9375 0.34375zm-1.046875 -10.421875l0 10.421875l-2.140625 0l0 -10.421875l2.140625 0zm10.806366 10.5625q-0.890625 0 -1.609375 -0.28125q-0.71875 -0.296875 -1.21875 -0.8125q-0.5 -0.515625 -0.765625 -1.1875q-0.25 -0.6875 -0.25 -1.46875l0 -0.28125q0 -0.875 0.25 -1.609375q0.25 -0.734375 0.71875 -1.265625q0.46875 -0.546875 1.140625 -0.828125q0.671875 -0.296875 1.515625 -0.296875q0.8125 0 1.453125 0.28125q0.640625 0.265625 1.0625 0.765625q0.4375 0.5 0.65625 1.203125q0.234375 0.703125 0.234375 1.546875l0 0.859375l-6.15625 0l0 -1.375l4.125 0l0 -0.15625q0 -0.4375 -0.15625 -0.765625q-0.15625 -0.34375 -0.46875 -0.546875q-0.296875 -0.203125 -0.78125 -0.203125q-0.40625 0 -0.703125 0.1875q-0.28125 0.171875 -0.46875 0.5q-0.1875 0.3125 -0.28125 0.75q-0.078125 0.4375 -0.078125 0.953125l0 0.28125q0 0.46875 0.125 0.859375q0.140625 0.390625 0.375 0.6875q0.25 0.28125 0.609375 0.4375q0.359375 0.15625 0.8125 0.15625q0.546875 0 1.03125 -0.21875q0.484375 -0.21875 0.84375 -0.65625l1.0 1.078125q-0.25 0.359375 -0.671875 0.6875q-0.40625 0.3125 -1.0 0.515625q-0.59375 0.203125 -1.34375 0.203125zm6.899994 -1.640625l1.71875 -6.25l2.15625 0l-2.625 7.75l-1.296875 0l0.046875 -1.5zm-1.1875 -6.25l1.734375 6.25l0.03125 1.5l-1.3125 0l-2.609375 -7.75l2.15625 0zm8.155518 0l0 7.75l-2.078125 0l0 -7.75l2.078125 0zm-2.203125 -2.015625q0 -0.453125 0.3125 -0.734375q0.3125 -0.296875 0.84375 -0.296875q0.53125 0 0.84375 0.296875q0.3125 0.28125 0.3125 0.734375q0 0.453125 -0.3125 0.75q-0.3125 0.296875 -0.84375 0.296875q-0.53125 0 -0.84375 -0.296875q-0.3125 -0.296875 -0.3125 -0.75zm7.0975037 8.296875q0.375 0 0.671875 -0.140625q0.296875 -0.15625 0.453125 -0.421875q0.171875 -0.265625 0.1875 -0.625l1.9375 0q0 0.8125 -0.4375 1.453125q-0.421875 0.625 -1.15625 0.984375q-0.71875 0.359375 -1.609375 0.359375q-0.90625 0 -1.578125 -0.296875q-0.671875 -0.296875 -1.109375 -0.828125q-0.4375 -0.546875 -0.671875 -1.25q-0.21875 -0.71875 -0.21875 -1.53125l0 -0.203125q0 -0.828125 0.21875 -1.53125q0.234375 -0.71875 0.671875 -1.25q0.4375 -0.53125 1.109375 -0.828125q0.671875 -0.3125 1.5625 -0.3125q0.953125 0 1.671875 0.375q0.71875 0.359375 1.125 1.046875q0.421875 0.671875 0.421875 1.59375l-1.9375 0q-0.015625 -0.390625 -0.171875 -0.703125q-0.140625 -0.3125 -0.4375 -0.5q-0.28125 -0.203125 -0.703125 -0.203125q-0.453125 0 -0.75 0.203125q-0.28125 0.1875 -0.4375 0.515625q-0.15625 0.3125 -0.21875 0.734375q-0.0625 0.40625 -0.0625 0.859375l0 0.203125q0 0.453125 0.046875 0.875q0.0625 0.40625 0.21875 0.734375q0.171875 0.3125 0.453125 0.5q0.296875 0.1875 0.75 0.1875zm7.9952393 1.609375q-0.890625 0 -1.609375 -0.28125q-0.71875 -0.296875 -1.21875 -0.8125q-0.5 -0.515625 -0.765625 -1.1875q-0.25 -0.6875 -0.25 -1.46875l0 -0.28125q0 -0.875 0.25 -1.609375q0.25 -0.734375 0.71875 -1.265625q0.46875 -0.546875 1.140625 -0.828125q0.671875 -0.296875 1.515625 -0.296875q0.8125 0 1.453125 0.28125q0.640625 0.265625 1.0625 0.765625q0.4375 0.5 0.65625 1.203125q0.234375 0.703125 0.234375 1.546875l0 0.859375l-6.15625 0l0 -1.375l4.125 0l0 -0.15625q0 -0.4375 -0.15625 -0.765625q-0.15625 -0.34375 -0.46875 -0.546875q-0.296875 -0.203125 -0.78125 -0.203125q-0.40625 0 -0.703125 0.1875q-0.28125 0.171875 -0.46875 0.5q-0.1875 0.3125 -0.28125 0.75q-0.078125 0.4375 -0.078125 0.953125l0 0.28125q0 0.46875 0.125 0.859375q0.140625 0.390625 0.375 0.6875q0.25 0.28125 0.609375 0.4375q0.359375 0.15625 0.8125 0.15625q0.546875 0 1.03125 -0.21875q0.484375 -0.21875 0.84375 -0.65625l1.0 1.078125q-0.25 0.359375 -0.671875 0.6875q-0.40625 0.3125 -1.0 0.515625q-0.59375 0.203125 -1.34375 0.203125z" fill-rule="nonzero"/><path fill="#000000" fill-opacity="0.0" d="m167.5538 73.7126l92.346466 0l0 35.55905l-92.346466 0z" fill-rule="evenodd"/><path fill="#000000" d="m198.89084 92.450096l1.203125 -0.109375q0.078125 0.71875 0.390625 1.1875q0.3125 0.453125 0.953125 0.734375q0.65625 0.28125 1.46875 0.28125q0.71875 0 1.265625 -0.21875q0.5625 -0.21875 0.828125 -0.578125q0.265625 -0.375 0.265625 -0.828125q0 -0.453125 -0.265625 -0.78125q-0.25 -0.328125 -0.84375 -0.5625q-0.390625 -0.15625 -1.703125 -0.46875q-1.3125 -0.3125 -1.84375 -0.59375q-0.671875 -0.359375 -1.015625 -0.890625q-0.328125 -0.53125 -0.328125 -1.1875q0 -0.71875 0.40625 -1.34375q0.40625 -0.625 1.1875 -0.953125q0.796875 -0.328125 1.765625 -0.328125q1.046875 0 1.859375 0.34375q0.8125 0.34375 1.25 1.015625q0.4375 0.65625 0.46875 1.484375l-1.203125 0.09375q-0.109375 -0.90625 -0.671875 -1.359375q-0.5625 -0.46875 -1.65625 -0.46875q-1.140625 0 -1.671875 0.421875q-0.515625 0.421875 -0.515625 1.015625q0 0.515625 0.359375 0.84375q0.375 0.328125 1.90625 0.6875q1.546875 0.34375 2.109375 0.59375q0.84375 0.390625 1.234375 0.984375q0.390625 0.578125 0.390625 1.359375q0 0.75 -0.4375 1.4375q-0.421875 0.671875 -1.25 1.046875q-0.8125 0.359375 -1.828125 0.359375q-1.296875 0 -2.171875 -0.375q-0.875 -0.375 -1.375 -1.125q-0.5 -0.765625 -0.53125 -1.71875zm9.327255 3.0625l0 -9.546875l3.59375 0q0.953125 0 1.453125 0.09375q0.703125 0.125 1.171875 0.453125q0.484375 0.328125 0.765625 0.921875q0.296875 0.59375 0.296875 1.296875q0 1.21875 -0.78125 2.0625q-0.765625 0.84375 -2.796875 0.84375l-2.4375 0l0 3.875l-1.265625 0zm1.265625 -5.0l2.453125 0q1.234375 0 1.75 -0.453125q0.515625 -0.46875 0.515625 -1.28125q0 -0.609375 -0.3125 -1.03125q-0.296875 -0.421875 -0.796875 -0.5625q-0.3125 -0.09375 -1.171875 -0.09375l-2.4375 0l0 3.421875zm7.8428802 5.0l0 -9.546875l1.25 0l0 9.546875l-1.25 0zm7.1247253 0l0 -9.546875l3.59375 0q1.09375 0 1.75 0.296875q0.65625 0.28125 1.03125 0.890625q0.375 0.609375 0.375 1.265625q0 0.609375 -0.34375 1.15625q-0.328125 0.53125 -0.984375 0.859375q0.859375 0.25 1.328125 0.875q0.46875 0.609375 0.46875 1.4375q0 0.671875 -0.296875 1.25q-0.28125 0.578125 -0.703125 0.890625q-0.40625 0.3125 -1.03125 0.46875q-0.625 0.15625 -1.546875 0.15625l-3.640625 0zm1.265625 -5.53125l2.0625 0q0.84375 0 1.203125 -0.109375q0.484375 -0.140625 0.71875 -0.46875q0.25 -0.34375 0.25 -0.84375q0 -0.46875 -0.234375 -0.828125q-0.21875 -0.359375 -0.640625 -0.5q-0.421875 -0.140625 -1.453125 -0.140625l-1.90625 0l0 2.890625zm0 4.40625l2.375 0q0.609375 0 0.859375 -0.046875q0.4375 -0.078125 0.734375 -0.25q0.296875 -0.1875 0.484375 -0.53125q0.1875 -0.359375 0.1875 -0.8125q0 -0.53125 -0.28125 -0.921875q-0.265625 -0.40625 -0.75 -0.5625q-0.484375 -0.15625 -1.40625 -0.15625l-2.203125 0l0 3.28125zm7.0928802 -2.328125q0 -1.921875 1.078125 -2.84375q0.890625 -0.765625 2.171875 -0.765625q1.421875 0 2.328125 0.9375q0.90625 0.921875 0.90625 2.578125q0 1.328125 -0.40625 2.09375q-0.390625 0.765625 -1.15625 1.1875q-0.765625 0.421875 -1.671875 0.421875q-1.453125 0 -2.359375 -0.921875q-0.890625 -0.9375 -0.890625 -2.6875zm1.203125 0q0 1.328125 0.578125 1.984375q0.59375 0.65625 1.46875 0.65625q0.875 0 1.453125 -0.65625q0.578125 -0.671875 0.578125 -2.03125q0 -1.28125 -0.59375 -1.9375q-0.578125 -0.65625 -1.4375 -0.65625q-0.875 0 -1.46875 0.65625q-0.578125 0.65625 -0.578125 1.984375zm6.2093506 0q0 -1.921875 1.078125 -2.84375q0.890625 -0.765625 2.171875 -0.765625q1.421875 0 2.328125 0.9375q0.90625 0.921875 0.90625 2.578125q0 1.328125 -0.40625 2.09375q-0.390625 0.765625 -1.15625 1.1875q-0.765625 0.421875 -1.671875 0.421875q-1.453125 0 -2.359375 -0.921875q-0.890625 -0.9375 -0.890625 -2.6875zm1.203125 0q0 1.328125 0.578125 1.984375q0.59375 0.65625 1.46875 0.65625q0.875 0 1.453125 -0.65625q0.578125 -0.671875 0.578125 -2.03125q0 -1.28125 -0.59375 -1.9375q-0.578125 -0.65625 -1.4375 -0.65625q-0.875 0 -1.46875 0.65625q-0.578125 0.65625 -0.578125 1.984375zm9.209351 2.40625l0.171875 1.03125q-0.5 0.109375 -0.890625 0.109375q-0.640625 0 -1.0 -0.203125q-0.34375 -0.203125 -0.484375 -0.53125q-0.140625 -0.328125 -0.140625 -1.390625l0 -3.96875l-0.859375 0l0 -0.90625l0.859375 0l0 -1.71875l1.171875 -0.703125l0 2.421875l1.171875 0l0 0.90625l-1.171875 0l0 4.046875q0 0.5 0.046875 0.640625q0.0625 0.140625 0.203125 0.234375q0.140625 0.078125 0.40625 0.078125q0.203125 0 0.515625 -0.046875z" fill-rule="nonzero"/><path fill="#000000" fill-opacity="0.0" d="m259.90027 91.49213l85.97565 0l0 0.06298828l85.99286 0" fill-rule="evenodd"/><path stroke="#000000" stroke-width="2.0" stroke-linejoin="round" stroke-linecap="butt" d="m271.90027 91.49213l73.97565 0l0 0.06298828l73.99286 0" fill-rule="evenodd"/><path fill="#000000" stroke="#000000" stroke-width="2.0" stroke-linecap="butt" d="m271.90027 88.18866l-9.076202 3.3034668l9.076202 3.3034668z" fill-rule="evenodd"/><path fill="#000000" stroke="#000000" stroke-width="2.0" stroke-linecap="butt" d="m419.86877 94.85858l9.076202 -3.3034668l-9.076202 -3.3034592z" fill-rule="evenodd"/><path fill="#000000" fill-opacity="0.0" d="m167.5538 202.70473l92.346466 0l0 35.55905l-92.346466 0z" fill-rule="evenodd"/><path fill="#000000" d="m217.12999 224.50473l0 -9.546875l4.234375 0q1.265625 0 1.921875 0.265625q0.671875 0.25 1.0625 0.90625q0.40625 0.65625 0.40625 1.4375q0 1.015625 -0.65625 1.71875q-0.65625 0.6875 -2.03125 0.875q0.5 0.25 0.765625 0.484375q0.546875 0.5 1.046875 1.265625l1.65625 2.59375l-1.578125 0l-1.265625 -1.984375q-0.5625 -0.859375 -0.921875 -1.3125q-0.34375 -0.453125 -0.640625 -0.640625q-0.28125 -0.1875 -0.5625 -0.25q-0.21875 -0.046875 -0.703125 -0.046875l-1.46875 0l0 4.234375l-1.265625 0zm1.265625 -5.328125l2.71875 0q0.859375 0 1.34375 -0.171875q0.484375 -0.1875 0.734375 -0.578125q0.265625 -0.390625 0.265625 -0.859375q0 -0.671875 -0.5 -1.109375q-0.484375 -0.4375 -1.546875 -0.4375l-3.015625 0l0 3.15625zm12.922028 3.109375l1.203125 0.140625q-0.28125 1.0625 -1.0625 1.65625q-0.765625 0.578125 -1.96875 0.578125q-1.515625 0 -2.40625 -0.9375q-0.890625 -0.9375 -0.890625 -2.609375q0 -1.75 0.890625 -2.703125q0.90625 -0.96875 2.34375 -0.96875q1.390625 0 2.265625 0.9375q0.875 0.9375 0.875 2.65625q0 0.109375 0 0.3125l-5.15625 0q0.0625 1.140625 0.640625 1.75q0.578125 0.59375 1.4375 0.59375q0.65625 0 1.109375 -0.328125q0.453125 -0.34375 0.71875 -1.078125zm-3.84375 -1.90625l3.859375 0q-0.078125 -0.859375 -0.4375 -1.296875q-0.5625 -0.6875 -1.453125 -0.6875q-0.8125 0 -1.359375 0.546875q-0.546875 0.53125 -0.609375 1.4375zm6.0531006 2.0625l1.15625 -0.1875q0.109375 0.703125 0.546875 1.078125q0.453125 0.359375 1.25 0.359375q0.8125 0 1.203125 -0.328125q0.390625 -0.328125 0.390625 -0.765625q0 -0.390625 -0.359375 -0.625q-0.234375 -0.15625 -1.1875 -0.390625q-1.296875 -0.328125 -1.796875 -0.5625q-0.484375 -0.25 -0.75 -0.65625q-0.25 -0.421875 -0.25 -0.9375q0 -0.453125 0.203125 -0.84375q0.21875 -0.40625 0.578125 -0.671875q0.28125 -0.1875 0.75 -0.328125q0.46875 -0.140625 1.015625 -0.140625q0.8125 0 1.421875 0.234375q0.609375 0.234375 0.90625 0.640625q0.296875 0.390625 0.40625 1.0625l-1.140625 0.15625q-0.078125 -0.53125 -0.453125 -0.828125q-0.375 -0.3125 -1.0625 -0.3125q-0.8125 0 -1.15625 0.265625q-0.34375 0.265625 -0.34375 0.625q0 0.234375 0.140625 0.421875q0.15625 0.1875 0.453125 0.3125q0.171875 0.0625 1.03125 0.296875q1.25 0.328125 1.734375 0.546875q0.5 0.203125 0.78125 0.609375q0.28125 0.40625 0.28125 1.0q0 0.59375 -0.34375 1.109375q-0.34375 0.515625 -1.0 0.796875q-0.640625 0.28125 -1.453125 0.28125q-1.34375 0 -2.046875 -0.5625q-0.703125 -0.5625 -0.90625 -1.65625zm11.8671875 -0.15625l1.203125 0.140625q-0.28125 1.0625 -1.0625 1.65625q-0.765625 0.578125 -1.96875 0.578125q-1.515625 0 -2.40625 -0.9375q-0.890625 -0.9375 -0.890625 -2.609375q0 -1.75 0.890625 -2.703125q0.90625 -0.96875 2.34375 -0.96875q1.390625 0 2.265625 0.9375q0.875 0.9375 0.875 2.65625q0 0.109375 0 0.3125l-5.15625 0q0.0625 1.140625 0.640625 1.75q0.578125 0.59375 1.4375 0.59375q0.65625 0 1.109375 -0.328125q0.453125 -0.34375 0.71875 -1.078125zm-3.84375 -1.90625l3.859375 0q-0.078125 -0.859375 -0.4375 -1.296875q-0.5625 -0.6875 -1.453125 -0.6875q-0.8125 0 -1.359375 0.546875q-0.546875 0.53125 -0.609375 1.4375zm9.084351 3.078125l0.171875 1.03125q-0.5 0.109375 -0.890625 0.109375q-0.640625 0 -1.0 -0.203125q-0.34375 -0.203125 -0.484375 -0.53125q-0.140625 -0.328125 -0.140625 -1.390625l0 -3.96875l-0.859375 0l0 -0.90625l0.859375 0l0 -1.71875l1.171875 -0.703125l0 2.421875l1.171875 0l0 0.90625l-1.171875 0l0 4.046875q0 0.5 0.046875 0.640625q0.0625 0.140625 0.203125 0.234375q0.140625 0.078125 0.40625 0.078125q0.203125 0 0.515625 -0.046875z" fill-rule="nonzero"/><path fill="#000000" fill-opacity="0.0" d="m167.5538 238.26378l92.346466 0l0 35.559067l-92.346466 0z" fill-rule="evenodd"/><path fill="#000000" d="m220.06894 260.06378l0 -9.546875l3.28125 0q1.109375 0 1.703125 0.140625q0.8125 0.1875 1.390625 0.6875q0.765625 0.640625 1.140625 1.640625q0.375 0.984375 0.375 2.25q0 1.09375 -0.265625 1.9375q-0.25 0.828125 -0.65625 1.390625q-0.390625 0.546875 -0.859375 0.859375q-0.46875 0.3125 -1.140625 0.484375q-0.65625 0.15625 -1.53125 0.15625l-3.4375 0zm1.265625 -1.125l2.03125 0q0.9375 0 1.46875 -0.171875q0.546875 -0.1875 0.875 -0.5q0.4375 -0.453125 0.6875 -1.203125q0.25 -0.765625 0.25 -1.84375q0 -1.5 -0.5 -2.296875q-0.484375 -0.8125 -1.1875 -1.078125q-0.5 -0.203125 -1.625 -0.203125l-2.0 0l0 7.296875zm7.7657776 -2.328125q0 -1.921875 1.078125 -2.84375q0.890625 -0.765625 2.171875 -0.765625q1.421875 0 2.328125 0.9375q0.90625 0.921875 0.90625 2.578125q0 1.328125 -0.40625 2.09375q-0.390625 0.765625 -1.15625 1.1875q-0.765625 0.421875 -1.671875 0.421875q-1.453125 0 -2.359375 -0.921875q-0.890625 -0.9375 -0.890625 -2.6875zm1.203125 0q0 1.328125 0.578125 1.984375q0.59375 0.65625 1.46875 0.65625q0.875 0 1.453125 -0.65625q0.578125 -0.671875 0.578125 -2.03125q0 -1.28125 -0.59375 -1.9375q-0.578125 -0.65625 -1.4375 -0.65625q-0.875 0 -1.46875 0.65625q-0.578125 0.65625 -0.578125 1.984375zm6.6468506 3.453125l0 -6.90625l1.0625 0l0 0.984375q0.75 -1.140625 2.1875 -1.140625q0.625 0 1.15625 0.21875q0.53125 0.21875 0.78125 0.59375q0.265625 0.359375 0.375 0.859375q0.0625 0.328125 0.0625 1.140625l0 4.25l-1.171875 0l0 -4.203125q0 -0.71875 -0.140625 -1.0625q-0.140625 -0.359375 -0.484375 -0.5625q-0.34375 -0.21875 -0.8125 -0.21875q-0.75 0 -1.296875 0.46875q-0.546875 0.46875 -0.546875 1.796875l0 3.78125l-1.171875 0zm12.146851 -2.21875l1.203125 0.140625q-0.28125 1.0625 -1.0625 1.65625q-0.765625 0.578125 -1.96875 0.578125q-1.515625 0 -2.40625 -0.9375q-0.890625 -0.9375 -0.890625 -2.609375q0 -1.75 0.890625 -2.703125q0.90625 -0.96875 2.34375 -0.96875q1.390625 0 2.265625 0.9375q0.875 0.9375 0.875 2.65625q0 0.109375 0 0.3125l-5.15625 0q0.0625 1.140625 0.640625 1.75q0.578125 0.59375 1.4375 0.59375q0.65625 0 1.109375 -0.328125q0.453125 -0.34375 0.71875 -1.078125zm-3.84375 -1.90625l3.859375 0q-0.078125 -0.859375 -0.4375 -1.296875q-0.5625 -0.6875 -1.453125 -0.6875q-0.8125 0 -1.359375 0.546875q-0.546875 0.53125 -0.609375 1.4375z" fill-rule="nonzero"/><path fill="#000000" fill-opacity="0.0" d="m167.5538 300.80447l92.346466 0l0 51.716522l-92.346466 0z" fill-rule="evenodd"/><path fill="#000000" d="m199.66919 313.0576l1.265625 0l0 5.515625q0 1.4375 -0.328125 2.296875q-0.3125 0.84375 -1.171875 1.375q-0.84375 0.515625 -2.21875 0.515625q-1.34375 0 -2.203125 -0.453125q-0.84375 -0.46875 -1.21875 -1.34375q-0.359375 -0.875 -0.359375 -2.390625l0 -5.515625l1.265625 0l0 5.515625q0 1.234375 0.21875 1.828125q0.234375 0.59375 0.796875 0.921875q0.5625 0.3125 1.390625 0.3125q1.390625 0 1.96875 -0.625q0.59375 -0.640625 0.59375 -2.4375l0 -5.515625zm2.9376526 6.484375l1.203125 -0.109375q0.078125 0.71875 0.390625 1.1875q0.3125 0.453125 0.953125 0.734375q0.65625 0.28125 1.46875 0.28125q0.71875 0 1.265625 -0.21875q0.5625 -0.21875 0.828125 -0.578125q0.265625 -0.375 0.265625 -0.828125q0 -0.453125 -0.265625 -0.78125q-0.25 -0.328125 -0.84375 -0.5625q-0.390625 -0.15625 -1.703125 -0.46875q-1.3125 -0.3125 -1.84375 -0.59375q-0.671875 -0.359375 -1.015625 -0.890625q-0.328125 -0.53125 -0.328125 -1.1875q0 -0.71875 0.40625 -1.34375q0.40625 -0.625 1.1875 -0.953125q0.796875 -0.328125 1.765625 -0.328125q1.046875 0 1.859375 0.34375q0.8125 0.34375 1.25 1.015625q0.4375 0.65625 0.46875 1.484375l-1.203125 0.09375q-0.109375 -0.90625 -0.671875 -1.359375q-0.5625 -0.46875 -1.65625 -0.46875q-1.140625 0 -1.671875 0.421875q-0.515625 0.421875 -0.515625 1.015625q0 0.515625 0.359375 0.84375q0.375 0.328125 1.90625 0.6875q1.546875 0.34375 2.109375 0.59375q0.84375 0.390625 1.234375 0.984375q0.390625 0.578125 0.390625 1.359375q0 0.75 -0.4375 1.4375q-0.421875 0.671875 -1.25 1.046875q-0.8125 0.359375 -1.828125 0.359375q-1.296875 0 -2.171875 -0.375q-0.875 -0.375 -1.375 -1.125q-0.5 -0.765625 -0.53125 -1.71875zm9.264755 3.0625l0 -9.546875l3.59375 0q1.09375 0 1.75 0.296875q0.65625 0.28125 1.03125 0.890625q0.375 0.609375 0.375 1.265625q0 0.609375 -0.34375 1.15625q-0.328125 0.53125 -0.984375 0.859375q0.859375 0.25 1.328125 0.875q0.46875 0.609375 0.46875 1.4375q0 0.671875 -0.296875 1.25q-0.28125 0.578125 -0.703125 0.890625q-0.40625 0.3125 -1.03125 0.46875q-0.625 0.15625 -1.546875 0.15625l-3.640625 0zm1.265625 -5.53125l2.0625 0q0.84375 0 1.203125 -0.109375q0.484375 -0.140625 0.71875 -0.46875q0.25 -0.34375 0.25 -0.84375q0 -0.46875 -0.234375 -0.828125q-0.21875 -0.359375 -0.640625 -0.5q-0.421875 -0.140625 -1.453125 -0.140625l-1.90625 0l0 2.890625zm0 4.40625l2.375 0q0.609375 0 0.859375 -0.046875q0.4375 -0.078125 0.734375 -0.25q0.296875 -0.1875 0.484375 -0.53125q0.1875 -0.359375 0.1875 -0.8125q0 -0.53125 -0.28125 -0.921875q-0.265625 -0.40625 -0.75 -0.5625q-0.484375 -0.15625 -1.40625 -0.15625l-2.203125 0l0 3.28125zm11.420868 1.125l0 -9.546875l1.265625 0l0 3.921875l4.953125 0l0 -3.921875l1.265625 0l0 9.546875l-1.265625 0l0 -4.5l-4.953125 0l0 4.5l-1.265625 0zm9.000153 -3.453125q0 -1.921875 1.078125 -2.84375q0.890625 -0.765625 2.171875 -0.765625q1.421875 0 2.328125 0.9375q0.90625 0.921875 0.90625 2.578125q0 1.328125 -0.40625 2.09375q-0.390625 0.765625 -1.15625 1.1875q-0.765625 0.421875 -1.671875 0.421875q-1.453125 0 -2.359375 -0.921875q-0.890625 -0.9375 -0.890625 -2.6875zm1.203125 0q0 1.328125 0.578125 1.984375q0.59375 0.65625 1.46875 0.65625q0.875 0 1.453125 -0.65625q0.578125 -0.671875 0.578125 -2.03125q0 -1.28125 -0.59375 -1.9375q-0.578125 -0.65625 -1.4375 -0.65625q-0.875 0 -1.46875 0.65625q-0.578125 0.65625 -0.578125 1.984375zm6.1781006 1.390625l1.15625 -0.1875q0.109375 0.703125 0.546875 1.078125q0.453125 0.359375 1.25 0.359375q0.8125 0 1.203125 -0.328125q0.390625 -0.328125 0.390625 -0.765625q0 -0.390625 -0.359375 -0.625q-0.234375 -0.15625 -1.1875 -0.390625q-1.296875 -0.328125 -1.796875 -0.5625q-0.484375 -0.25 -0.75 -0.65625q-0.25 -0.421875 -0.25 -0.9375q0 -0.453125 0.203125 -0.84375q0.21875 -0.40625 0.578125 -0.671875q0.28125 -0.1875 0.75 -0.328125q0.46875 -0.140625 1.015625 -0.140625q0.8125 0 1.421875 0.234375q0.609375 0.234375 0.90625 0.640625q0.296875 0.390625 0.40625 1.0625l-1.140625 0.15625q-0.078125 -0.53125 -0.453125 -0.828125q-0.375 -0.3125 -1.0625 -0.3125q-0.8125 0 -1.15625 0.265625q-0.34375 0.265625 -0.34375 0.625q0 0.234375 0.140625 0.421875q0.15625 0.1875 0.453125 0.3125q0.171875 0.0625 1.03125 0.296875q1.25 0.328125 1.734375 0.546875q0.5 0.203125 0.78125 0.609375q0.28125 0.40625 0.28125 1.0q0 0.59375 -0.34375 1.109375q-0.34375 0.515625 -1.0 0.796875q-0.640625 0.28125 -1.453125 0.28125q-1.34375 0 -2.046875 -0.5625q-0.703125 -0.5625 -0.90625 -1.65625zm9.6953125 1.015625l0.171875 1.03125q-0.5 0.109375 -0.890625 0.109375q-0.640625 0 -1.0 -0.203125q-0.34375 -0.203125 -0.484375 -0.53125q-0.140625 -0.328125 -0.140625 -1.390625l0 -3.96875l-0.859375 0l0 -0.90625l0.859375 0l0 -1.71875l1.171875 -0.703125l0 2.421875l1.171875 0l0 0.90625l-1.171875 0l0 4.046875q0 0.5 0.046875 0.640625q0.0625 0.140625 0.203125 0.234375q0.140625 0.078125 0.40625 0.078125q0.203125 0 0.515625 -0.046875z" fill-rule="nonzero"/><path fill="#000000" d="m205.16412 341.41696q-0.984375 -1.234375 -1.65625 -2.875q-0.65625 -1.640625 -0.65625 -3.390625q0 -1.546875 0.5 -2.96875q0.578125 -1.640625 1.8125 -3.28125l0.828125 0q-0.78125 1.359375 -1.03125 1.9375q-0.40625 0.890625 -0.625 1.875q-0.28125 1.21875 -0.28125 2.4375q0 3.140625 1.9375 6.265625l-0.828125 0zm2.2039948 -11.0l0 -1.359375l1.171875 0l0 1.359375l-1.171875 0zm0 8.1875l0 -6.90625l1.171875 0l0 6.90625l-1.171875 0zm3.226715 0l0 -6.0l-1.03125 0l0 -0.90625l1.03125 0l0 -0.734375q0 -0.703125 0.125 -1.046875q0.171875 -0.453125 0.59375 -0.734375q0.421875 -0.28125 1.203125 -0.28125q0.484375 0 1.09375 0.109375l-0.1875 1.03125q-0.359375 -0.0625 -0.6875 -0.0625q-0.53125 0 -0.75 0.234375q-0.21875 0.21875 -0.21875 0.84375l0 0.640625l1.34375 0l0 0.90625l-1.34375 0l0 6.0l-1.171875 0zm7.2184753 0l0 -9.546875l3.59375 0q1.09375 0 1.75 0.296875q0.65625 0.28125 1.03125 0.890625q0.375 0.609375 0.375 1.265625q0 0.609375 -0.34375 1.15625q-0.328125 0.53125 -0.984375 0.859375q0.859375 0.25 1.328125 0.875q0.46875 0.609375 0.46875 1.4375q0 0.671875 -0.296875 1.25q-0.28125 0.578125 -0.703125 0.890625q-0.40625 0.3125 -1.03125 0.46875q-0.625 0.15625 -1.546875 0.15625l-3.640625 0zm1.265625 -5.53125l2.0625 0q0.84375 0 1.203125 -0.109375q0.484375 -0.140625 0.71875 -0.46875q0.25 -0.34375 0.25 -0.84375q0 -0.46875 -0.234375 -0.828125q-0.21875 -0.359375 -0.640625 -0.5q-0.421875 -0.140625 -1.453125 -0.140625l-1.90625 0l0 2.890625zm0 4.40625l2.375 0q0.609375 0 0.859375 -0.046875q0.4375 -0.078125 0.734375 -0.25q0.296875 -0.1875 0.484375 -0.53125q0.1875 -0.359375 0.1875 -0.8125q0 -0.53125 -0.28125 -0.921875q-0.265625 -0.40625 -0.75 -0.5625q-0.484375 -0.15625 -1.40625 -0.15625l-2.203125 0l0 3.28125zm7.6397552 1.125l0 -9.546875l1.90625 0l2.25 6.765625q0.3125 0.9375 0.46875 1.40625q0.15625 -0.515625 0.5 -1.53125l2.28125 -6.640625l1.703125 0l0 9.546875l-1.21875 0l0 -7.984375l-2.765625 7.984375l-1.140625 0l-2.765625 -8.125l0 8.125l-1.21875 0zm17.946182 -3.34375l1.265625 0.3125q-0.390625 1.5625 -1.421875 2.375q-1.03125 0.8125 -2.53125 0.8125q-1.53125 0 -2.5 -0.625q-0.96875 -0.625 -1.484375 -1.8125q-0.5 -1.1875 -0.5 -2.5625q0 -1.484375 0.5625 -2.59375q0.578125 -1.109375 1.625 -1.6875q1.0625 -0.578125 2.328125 -0.578125q1.421875 0 2.390625 0.734375q0.984375 0.71875 1.375 2.046875l-1.25 0.296875q-0.328125 -1.046875 -0.96875 -1.515625q-0.625 -0.484375 -1.578125 -0.484375q-1.09375 0 -1.84375 0.53125q-0.734375 0.53125 -1.03125 1.421875q-0.296875 0.875 -0.296875 1.828125q0 1.21875 0.34375 2.125q0.359375 0.90625 1.109375 1.359375q0.75 0.4375 1.625 0.4375q1.0625 0 1.796875 -0.609375q0.734375 -0.609375 0.984375 -1.8125zm3.4376526 6.15625l-0.828125 0q1.9375 -3.125 1.9375 -6.265625q0 -1.21875 -0.28125 -2.421875q-0.21875 -0.984375 -0.609375 -1.875q-0.265625 -0.59375 -1.046875 -1.953125l0.828125 0q1.234375 1.640625 1.8125 3.28125q0.5 1.421875 0.5 2.96875q0 1.75 -0.671875 3.390625q-0.671875 1.640625 -1.640625 2.875z" fill-rule="nonzero"/><path fill="#000000" fill-opacity="0.0" d="m431.85303 220.48425l-85.97568 0l0 0.06298828l-85.99283 0" fill-rule="evenodd"/><path stroke="#000000" stroke-width="2.0" stroke-linejoin="round" stroke-linecap="butt" d="m431.85303 220.48425l-85.97565 0l0 0.06298828l-73.99286 0" fill-rule="evenodd"/><path fill="#000000" stroke="#000000" stroke-width="2.0" stroke-linecap="butt" d="m271.88452 217.24377l-9.076202 3.3034668l9.076202 3.3034668z" fill-rule="evenodd"/><path fill="#000000" fill-opacity="0.0" d="m259.90027 256.0433l85.97565 0l0 0.06298828l85.99286 0" fill-rule="evenodd"/><path stroke="#000000" stroke-width="2.0" stroke-linejoin="round" stroke-linecap="butt" d="m259.90027 256.0433l85.97565 0l0 0.06298828l73.99286 0" fill-rule="evenodd"/><path fill="#000000" stroke="#000000" stroke-width="2.0" stroke-linecap="butt" d="m419.86877 259.40976l9.076202 -3.3034668l-9.076202 -3.3034515z" fill-rule="evenodd"/><path fill="#000000" fill-opacity="0.0" d="m431.85303 326.66272l-85.97568 0l0 0.06298828l-85.99283 0" fill-rule="evenodd"/><path stroke="#000000" stroke-width="2.0" stroke-linejoin="round" stroke-linecap="butt" d="m419.85303 326.66272l-73.97565 0l0 0.06298828l-73.99286 0" fill-rule="evenodd"/><path fill="#000000" stroke="#000000" stroke-width="2.0" stroke-linecap="butt" d="m419.85303 329.9662l9.076172 -3.3034668l-9.076172 -3.3034668z" fill-rule="evenodd"/><path fill="#000000" stroke="#000000" stroke-width="2.0" stroke-linecap="butt" d="m271.88452 323.42227l-9.076202 3.3034363l9.076202 3.3034668z" fill-rule="evenodd"/></g></svg>